<?xml version="1.0" encoding="UTF-8" standalone="no"?>
<!DOCTYPE svg PUBLIC "-//W3C//DTD SVG 1.1//EN" "http://www.w3.org/Graphics/SVG/1.1/DTD/svg11.dtd">
<!-- Generated by Microsoft Visio, SVG Export ziti-kubecon.svg Page-1 -->
<svg xmlns="http://www.w3.org/2000/svg" xmlns:xlink="http://www.w3.org/1999/xlink" xmlns:ev="http://www.w3.org/2001/xml-events"
		xmlns:v="http://schemas.microsoft.com/visio/2003/SVGExtensions/" width="9.00521in" height="6.07966in"
		viewBox="0 0 648.375 437.736" xml:space="preserve" color-interpolation-filters="sRGB" class="st38">
	<v:documentProperties v:langID="1033" v:viewMarkup="false"/>

	<style type="text/css">
	<![CDATA[
		.st1 {fill:#ffd291;stroke:#476aa4;stroke-linecap:round;stroke-linejoin:round;stroke-width:0.5}
		.st2 {fill:#ffffff;fill-opacity:0.2;stroke:#233452;stroke-dasharray:3.5,2.5;stroke-linecap:round;stroke-linejoin:round;stroke-width:0.5}
		.st3 {fill:#326de5;font-family:Calibri;font-size:1.00001em;font-weight:bold}
		.st4 {fill:#ffc062;stroke:#262626;stroke-linecap:round;stroke-linejoin:round;stroke-width:0.5}
		.st5 {fill:#000000;font-family:Calibri;font-size:1.00001em}
		.st6 {visibility:visible}
		.st7 {fill:#000000;fill-opacity:0.2;filter:url(#filter_4);stroke:#000000;stroke-linecap:round;stroke-linejoin:round;stroke-opacity:0.2}
		.st8 {fill:#cce7f9;stroke:#0b64d7;stroke-linecap:round;stroke-linejoin:round;stroke-width:0.5}
		.st9 {fill:#0c64d7;font-family:Calibri;font-size:0.833336em}
		.st10 {fill:#feffff;stroke:#3a5889;stroke-linecap:round;stroke-linejoin:round;stroke-width:0.5}
		.st11 {fill:#3a5889;font-family:Calibri;font-size:0.833336em}
		.st12 {font-size:1em}
		.st13 {fill:#fadfdf;stroke:#c71f16;stroke-linecap:round;stroke-linejoin:round;stroke-width:0.5}
		.st14 {fill:#3a588a;font-family:Calibri;font-size:0.833336em}
		.st15 {fill:#0b64d7;font-family:Calibri;font-size:0.833336em}
		.st16 {fill:#dfe5ff;stroke:#1078ff;stroke-linecap:round;stroke-linejoin:round;stroke-width:1.75}
		.st17 {fill:#0b64d7;font-family:Calibri;font-size:1.00001em;font-weight:bold}
		.st18 {fill:#92d7ff;stroke:none;stroke-linecap:butt;stroke-width:1}
		.st19 {fill:#0273fa;stroke:none;stroke-linecap:butt;stroke-width:1}
		.st20 {fill:#0273fa}
		.st21 {stroke:none;stroke-linecap:butt;stroke-width:1}
		.st22 {fill:none;stroke:none;stroke-linecap:round;stroke-linejoin:round;stroke-width:0.5}
		.st23 {fill:#1078ff;font-family:Calibri;font-size:1.00001em}
		.st24 {stroke:#013694;stroke-linecap:round;stroke-linejoin:round;stroke-width:2.25}
		.st25 {fill:url(#grad0-155);stroke:none;stroke-linecap:butt;stroke-width:3.03873}
		.st26 {fill:#ffffff;stroke:none;stroke-linecap:butt;stroke-width:3.03873}
		.st27 {fill:#97ddff;stroke:#476aa4;stroke-linecap:round;stroke-linejoin:round;stroke-width:0.5}
		.st28 {fill:#0c64d7;font-family:Calibri;font-size:1.99999em}
		.st29 {fill:#252f3e;stroke:none;stroke-linecap:butt;stroke-width:2.01316}
		.st30 {fill:#ff9900;stroke:none;stroke-linecap:butt;stroke-width:2.01316}
		.st31 {fill:#326de6;stroke:none;stroke-linecap:butt;stroke-width:1.22253}
		.st32 {fill:#ffffff;stroke:none;stroke-linecap:butt;stroke-width:1.22253}
		.st33 {fill:#326de5}
		.st34 {stroke:none;stroke-linecap:butt;stroke-width:1.22253}
		.st35 {fill:#326de5;stroke:none;stroke-linecap:butt;stroke-width:1.22253}
		.st36 {fill:#feffff;stroke:none;stroke-linecap:round;stroke-linejoin:round;stroke-width:0.5}
		.st37 {fill:#0b64d7;font-family:Calibri;font-size:1.00001em}
		.st38 {fill:none;fill-rule:evenodd;font-size:12px;overflow:visible;stroke-linecap:square;stroke-miterlimit:3}
	]]>
	</style>

	<defs id="Patterns_And_Gradients">
		<linearGradient id="grad0-155" x1="0" y1="0" x2="1" y2="0" gradientTransform="rotate(-116.99999444949 0.5 0.5)">
			<stop offset="0.005" stop-color="#fc0147" stop-opacity="1"/>
			<stop offset="0.04" stop-color="#f4044d" stop-opacity="1"/>
			<stop offset="0.9" stop-color="#0068f9" stop-opacity="1"/>
		</linearGradient>
	</defs>
	<defs id="Filters">
		<filter id="filter_4">
			<feGaussianBlur stdDeviation="4"/>
		</filter>
	</defs>
	<g v:mID="0" v:index="1" v:groupContext="foregroundPage">
		<title>Page-1</title>
		<v:pageProperties v:drawingScale="1" v:pageScale="1" v:drawingUnits="0" v:shadowOffsetX="9" v:shadowOffsetY="-9"/>
		<g id="shape2006-1" v:mID="2006" v:groupContext="shape" transform="translate(0.249852,-63.25)">
			<title>Rounded Rectangle</title>
			<v:userDefs>
				<v:ud v:nameU="CTypeTopLeftSnip" v:prompt="" v:val="VT0(0):5"/>
				<v:ud v:nameU="CTypeTopRightSnip" v:prompt="" v:val="VT0(0):5"/>
				<v:ud v:nameU="CTypeBotLeftSnip" v:prompt="" v:val="VT0(0):5"/>
				<v:ud v:nameU="CTypeBotRightSnip" v:prompt="" v:val="VT0(0):5"/>
				<v:ud v:nameU="CornerLockHoriz" v:prompt="" v:val="VT0(1):5"/>
				<v:ud v:nameU="CornerLockVert" v:prompt="" v:val="VT0(1):5"/>
				<v:ud v:nameU="CornerLockDiag" v:prompt="" v:val="VT0(0):5"/>
				<v:ud v:nameU="TopLeftOffset" v:prompt="" v:val="VT0(0.15):1"/>
				<v:ud v:nameU="TopRightOffset" v:prompt="" v:val="VT0(0.15):1"/>
				<v:ud v:nameU="BotLeftOffset" v:prompt="" v:val="VT0(0.15):1"/>
				<v:ud v:nameU="BotRightOffset" v:prompt="" v:val="VT0(0.15):1"/>
				<v:ud v:nameU="visVersion" v:prompt="" v:val="VT0(15):26"/>
				<v:ud v:nameU="TopLeftOffset" v:prompt="" v:val="VT0(0.12500000000025):1"/>
				<v:ud v:nameU="TopRightOffset" v:prompt="" v:val="VT0(0.12500000000025):1"/>
				<v:ud v:nameU="BotLeftOffset" v:prompt="" v:val="VT0(0.12500000000025):1"/>
				<v:ud v:nameU="BotRightOffset" v:prompt="" v:val="VT0(0.12500000000025):1"/>
			</v:userDefs>
			<path d="M9 437.74 L333 437.74 A8.99985 8.99985 -180 0 0 342 428.74 L342 72.5 A8.99985 8.99985 -180 0 0 333 63.5 L9 63.5
						 A8.99985 8.99985 -180 0 0 0 72.5 L0 428.74 A8.99985 8.99985 -180 0 0 9 437.74 Z" class="st1"/>
		</g>
		<g id="shape1861-3" v:mID="1861" v:groupContext="shape" transform="translate(13.7499,-121.75)">
			<title>Rounded Rectangle.1861</title>
			<desc>Cluster A</desc>
			<v:userDefs>
				<v:ud v:nameU="CTypeTopLeftSnip" v:prompt="" v:val="VT0(0):5"/>
				<v:ud v:nameU="CTypeTopRightSnip" v:prompt="" v:val="VT0(0):5"/>
				<v:ud v:nameU="CTypeBotLeftSnip" v:prompt="" v:val="VT0(0):5"/>
				<v:ud v:nameU="CTypeBotRightSnip" v:prompt="" v:val="VT0(0):5"/>
				<v:ud v:nameU="CornerLockHoriz" v:prompt="" v:val="VT0(1):5"/>
				<v:ud v:nameU="CornerLockVert" v:prompt="" v:val="VT0(1):5"/>
				<v:ud v:nameU="CornerLockDiag" v:prompt="" v:val="VT0(0):5"/>
				<v:ud v:nameU="TopLeftOffset" v:prompt="" v:val="VT0(0.15):1"/>
				<v:ud v:nameU="TopRightOffset" v:prompt="" v:val="VT0(0.15):1"/>
				<v:ud v:nameU="BotLeftOffset" v:prompt="" v:val="VT0(0.15):1"/>
				<v:ud v:nameU="BotRightOffset" v:prompt="" v:val="VT0(0.15):1"/>
				<v:ud v:nameU="visVersion" v:prompt="" v:val="VT0(15):26"/>
				<v:ud v:nameU="TopLeftOffset" v:prompt="" v:val="VT0(0.21130951857639):1"/>
				<v:ud v:nameU="TopRightOffset" v:prompt="" v:val="VT0(0.21130951857639):1"/>
				<v:ud v:nameU="BotLeftOffset" v:prompt="" v:val="VT0(0.21130951857639):1"/>
				<v:ud v:nameU="BotRightOffset" v:prompt="" v:val="VT0(0.21130951857639):1"/>
			</v:userDefs>
			<v:textBlock v:margins="rect(4,4,4,4)" v:verticalAlign="2"/>
			<v:textRect cx="159.75" cy="284.368" width="319.5" height="306.736"/>
			<path d="M15.21 437.74 L304.29 437.74 A15.214 15.214 -180 0 0 319.5 422.52 L319.5 146.21 A15.214 15.214 -180 0 0 304.29
						 131 L15.21 131 A15.214 15.214 -180 0 0 0 146.21 L0 422.52 A15.214 15.214 -180 0 0 15.21 437.74 Z"
					class="st2"/>
			<text x="6.71" y="430.14" class="st3" v:langID="1033"><v:paragraph/><v:tabList/>Cluster A</text>		</g>
		<g id="shape1862-6" v:mID="1862" v:groupContext="shape" transform="translate(27.2499,-320.486)">
			<title>Rounded Rectangle.1862</title>
			<desc>Node</desc>
			<v:userDefs>
				<v:ud v:nameU="CTypeTopLeftSnip" v:prompt="" v:val="VT0(0):5"/>
				<v:ud v:nameU="CTypeTopRightSnip" v:prompt="" v:val="VT0(0):5"/>
				<v:ud v:nameU="CTypeBotLeftSnip" v:prompt="" v:val="VT0(0):5"/>
				<v:ud v:nameU="CTypeBotRightSnip" v:prompt="" v:val="VT0(0):5"/>
				<v:ud v:nameU="CornerLockHoriz" v:prompt="" v:val="VT0(1):5"/>
				<v:ud v:nameU="CornerLockVert" v:prompt="" v:val="VT0(1):5"/>
				<v:ud v:nameU="CornerLockDiag" v:prompt="" v:val="VT0(0):5"/>
				<v:ud v:nameU="TopLeftOffset" v:prompt="" v:val="VT0(0.15):1"/>
				<v:ud v:nameU="TopRightOffset" v:prompt="" v:val="VT0(0.15):1"/>
				<v:ud v:nameU="BotLeftOffset" v:prompt="" v:val="VT0(0.15):1"/>
				<v:ud v:nameU="BotRightOffset" v:prompt="" v:val="VT0(0.15):1"/>
				<v:ud v:nameU="visVersion" v:prompt="" v:val="VT0(15):26"/>
				<v:ud v:nameU="TopLeftOffset" v:prompt="" v:val="VT0(0.19047619366931):1"/>
				<v:ud v:nameU="TopRightOffset" v:prompt="" v:val="VT0(0.19047619366931):1"/>
				<v:ud v:nameU="BotLeftOffset" v:prompt="" v:val="VT0(0.19047619366931):1"/>
				<v:ud v:nameU="BotRightOffset" v:prompt="" v:val="VT0(0.19047619366931):1"/>
			</v:userDefs>
			<v:textBlock v:margins="rect(2,2,2,2)" v:verticalAlign="2"/>
			<v:textRect cx="144" cy="388.236" width="288.01" height="99"/>
			<path d="M13.71 437.74 L274.29 437.74 A13.7141 13.7141 -180 0 0 288 424.02 L288 352.45 A13.7141 13.7141 -180 0 0 274.29
						 338.74 L13.71 338.74 A13.7141 13.7141 -180 0 0 0 352.45 L0 424.02 A13.7141 13.7141 -180 0 0 13.71 437.74
						 Z" class="st4"/>
			<text x="130.82" y="432.14" class="st5" v:langID="1033"><v:paragraph v:horizAlign="1"/><v:tabList/>Node</text>		</g>
		<g id="shape1863-9" v:mID="1863" v:groupContext="shape" transform="translate(49.7498,-342.986)">
			<title>Rounded Rectangle.1863</title>
			<desc>PodA</desc>
			<v:userDefs>
				<v:ud v:nameU="CTypeTopLeftSnip" v:prompt="" v:val="VT0(0):5"/>
				<v:ud v:nameU="CTypeTopRightSnip" v:prompt="" v:val="VT0(0):5"/>
				<v:ud v:nameU="CTypeBotLeftSnip" v:prompt="" v:val="VT0(0):5"/>
				<v:ud v:nameU="CTypeBotRightSnip" v:prompt="" v:val="VT0(0):5"/>
				<v:ud v:nameU="CornerLockHoriz" v:prompt="" v:val="VT0(1):5"/>
				<v:ud v:nameU="CornerLockVert" v:prompt="" v:val="VT0(1):5"/>
				<v:ud v:nameU="CornerLockDiag" v:prompt="" v:val="VT0(0):5"/>
				<v:ud v:nameU="TopLeftOffset" v:prompt="" v:val="VT0(0.15):1"/>
				<v:ud v:nameU="TopRightOffset" v:prompt="" v:val="VT0(0.15):1"/>
				<v:ud v:nameU="BotLeftOffset" v:prompt="" v:val="VT0(0.15):1"/>
				<v:ud v:nameU="BotRightOffset" v:prompt="" v:val="VT0(0.15):1"/>
				<v:ud v:nameU="visVersion" v:prompt="" v:val="VT0(15):26"/>
				<v:ud v:nameU="TopLeftOffset" v:prompt="" v:val="VT0(0.14843732751905):1"/>
				<v:ud v:nameU="TopRightOffset" v:prompt="" v:val="VT0(0.14843732751905):1"/>
				<v:ud v:nameU="BotLeftOffset" v:prompt="" v:val="VT0(0.14843732751905):1"/>
				<v:ud v:nameU="BotRightOffset" v:prompt="" v:val="VT0(0.14843732751905):1"/>
			</v:userDefs>
			<v:textBlock v:margins="rect(4,4,4,4)" v:verticalAlign="0"/>
			<v:textRect cx="128.25" cy="402.861" width="256.51" height="69.75"/>
			<g id="shadow1863-10" v:groupContext="shadow" v:shadowOffsetX="0" v:shadowOffsetY="-0" v:shadowType="2"
					v:shadowScale="0.310001" v:shadowAngle="-56.9997" transform="matrix(1,0,0.259988,0.16884,-113.806,363.828)"
					class="st6">
				<path d="M10.69 437.74 L245.81 437.74 A10.6873 10.6873 -180 0 0 256.5 427.05 L256.5 378.67 A10.6873 10.6873 -180
							 0 0 245.81 367.99 L10.69 367.99 A10.6873 10.6873 -180 0 0 0 378.67 L0 427.05 A10.6873 10.6873 -180 0
							 0 10.69 437.74 Z" class="st7"/>
			</g>
			<path d="M10.69 437.74 L245.81 437.74 A10.6873 10.6873 -180 0 0 256.5 427.05 L256.5 378.67 A10.6873 10.6873 -180 0 0
						 245.81 367.99 L10.69 367.99 A10.6873 10.6873 -180 0 0 0 378.67 L0 427.05 A10.6873 10.6873 -180 0 0 10.69
						 437.74 Z" class="st8"/>
			<text x="117.51" y="380.99" class="st9" v:langID="1033"><v:paragraph v:horizAlign="1"/><v:tabList/>PodA</text>		</g>
		<g id="group1864-15" transform="translate(54.2498,-353.208)" v:mID="1864" v:groupContext="group">
			<title>Sheet.1864</title>
			<g id="shape1865-16" v:mID="1865" v:groupContext="shape">
				<title>Rounded Rectangle.974</title>
				<desc>Container A - Client app: wget eth0.ziti.cli</desc>
				<v:userDefs>
					<v:ud v:nameU="CTypeTopLeftSnip" v:prompt="" v:val="VT0(0):5"/>
					<v:ud v:nameU="CTypeTopRightSnip" v:prompt="" v:val="VT0(0):5"/>
					<v:ud v:nameU="CTypeBotLeftSnip" v:prompt="" v:val="VT0(0):5"/>
					<v:ud v:nameU="CTypeBotRightSnip" v:prompt="" v:val="VT0(0):5"/>
					<v:ud v:nameU="CornerLockHoriz" v:prompt="" v:val="VT0(1):5"/>
					<v:ud v:nameU="CornerLockVert" v:prompt="" v:val="VT0(1):5"/>
					<v:ud v:nameU="CornerLockDiag" v:prompt="" v:val="VT0(0):5"/>
					<v:ud v:nameU="TopLeftOffset" v:prompt="" v:val="VT0(0.15):1"/>
					<v:ud v:nameU="TopRightOffset" v:prompt="" v:val="VT0(0.15):1"/>
					<v:ud v:nameU="BotLeftOffset" v:prompt="" v:val="VT0(0.15):1"/>
					<v:ud v:nameU="BotRightOffset" v:prompt="" v:val="VT0(0.15):1"/>
					<v:ud v:nameU="visVersion" v:prompt="" v:val="VT0(15):26"/>
					<v:ud v:nameU="TopLeftOffset" v:prompt="" v:val="VT0(0.049242461811413):1"/>
					<v:ud v:nameU="TopRightOffset" v:prompt="" v:val="VT0(0.049242461811413):1"/>
					<v:ud v:nameU="BotLeftOffset" v:prompt="" v:val="VT0(0.049242461811413):1"/>
					<v:ud v:nameU="BotRightOffset" v:prompt="" v:val="VT0(0.049242461811413):1"/>
				</v:userDefs>
				<v:textBlock v:margins="rect(4,4,4,4)" v:verticalAlign="0"/>
				<v:textRect cx="58.5" cy="416.458" width="117" height="42.5546"/>
				<path d="M3.55 437.74 L113.45 437.74 A3.5454 3.5454 -180 0 0 117 434.19 L117 398.73 A3.5454 3.5454 -180 0 0 113.45
							 395.18 L3.55 395.18 A3.5454 3.5454 -180 0 0 0 398.73 L0 434.19 A3.5454 3.5454 -180 0 0 3.55 437.74 Z"
						class="st10"/>
				<text x="13.62" y="408.18" class="st11" v:langID="1033"><v:paragraph v:horizAlign="2"/><v:tabList/>Container A - Client app:<v:lf/><tspan
							x="46.15" dy="1.2em" class="st12">wget eth0.ziti.cli</tspan></text>			</g>
			<g id="group1866-20" transform="translate(7.38001,-2.44542)" v:mID="1866" v:groupContext="group">
				<title>Sheet.1866</title>
			</g>
		</g>
		<g id="shape1890-21" v:mID="1890" v:groupContext="shape" transform="translate(27.2499,-171.25)">
			<title>Rounded Rectangle.1890</title>
			<desc>Node</desc>
			<v:userDefs>
				<v:ud v:nameU="CTypeTopLeftSnip" v:prompt="" v:val="VT0(0):5"/>
				<v:ud v:nameU="CTypeTopRightSnip" v:prompt="" v:val="VT0(0):5"/>
				<v:ud v:nameU="CTypeBotLeftSnip" v:prompt="" v:val="VT0(0):5"/>
				<v:ud v:nameU="CTypeBotRightSnip" v:prompt="" v:val="VT0(0):5"/>
				<v:ud v:nameU="CornerLockHoriz" v:prompt="" v:val="VT0(1):5"/>
				<v:ud v:nameU="CornerLockVert" v:prompt="" v:val="VT0(1):5"/>
				<v:ud v:nameU="CornerLockDiag" v:prompt="" v:val="VT0(0):5"/>
				<v:ud v:nameU="TopLeftOffset" v:prompt="" v:val="VT0(0.15):1"/>
				<v:ud v:nameU="TopRightOffset" v:prompt="" v:val="VT0(0.15):1"/>
				<v:ud v:nameU="BotLeftOffset" v:prompt="" v:val="VT0(0.15):1"/>
				<v:ud v:nameU="BotRightOffset" v:prompt="" v:val="VT0(0.15):1"/>
				<v:ud v:nameU="visVersion" v:prompt="" v:val="VT0(15):26"/>
				<v:ud v:nameU="TopLeftOffset" v:prompt="" v:val="VT0(0.19047619366931):1"/>
				<v:ud v:nameU="TopRightOffset" v:prompt="" v:val="VT0(0.19047619366931):1"/>
				<v:ud v:nameU="BotLeftOffset" v:prompt="" v:val="VT0(0.19047619366931):1"/>
				<v:ud v:nameU="BotRightOffset" v:prompt="" v:val="VT0(0.19047619366931):1"/>
			</v:userDefs>
			<v:textBlock v:margins="rect(2,2,2,2)" v:verticalAlign="2"/>
			<v:textRect cx="144" cy="376.618" width="288.01" height="122.236"/>
			<path d="M13.71 437.74 L274.29 437.74 A13.7141 13.7141 -180 0 0 288 424.02 L288 329.21 A13.7141 13.7141 -180 0 0 274.29
						 315.5 L13.71 315.5 A13.7141 13.7141 -180 0 0 0 329.21 L0 424.02 A13.7141 13.7141 -180 0 0 13.71 437.74 Z"
					class="st4"/>
			<text x="130.82" y="432.14" class="st5" v:langID="1033"><v:paragraph v:horizAlign="1"/><v:tabList/>Node</text>		</g>
		<g id="shape1891-24" v:mID="1891" v:groupContext="shape" transform="translate(49.7498,-221.875)">
			<title>Rounded Rectangle.1891</title>
			<desc>Podz</desc>
			<v:userDefs>
				<v:ud v:nameU="CTypeTopLeftSnip" v:prompt="" v:val="VT0(0):5"/>
				<v:ud v:nameU="CTypeTopRightSnip" v:prompt="" v:val="VT0(0):5"/>
				<v:ud v:nameU="CTypeBotLeftSnip" v:prompt="" v:val="VT0(0):5"/>
				<v:ud v:nameU="CTypeBotRightSnip" v:prompt="" v:val="VT0(0):5"/>
				<v:ud v:nameU="CornerLockHoriz" v:prompt="" v:val="VT0(1):5"/>
				<v:ud v:nameU="CornerLockVert" v:prompt="" v:val="VT0(1):5"/>
				<v:ud v:nameU="CornerLockDiag" v:prompt="" v:val="VT0(0):5"/>
				<v:ud v:nameU="TopLeftOffset" v:prompt="" v:val="VT0(0.15):1"/>
				<v:ud v:nameU="TopRightOffset" v:prompt="" v:val="VT0(0.15):1"/>
				<v:ud v:nameU="BotLeftOffset" v:prompt="" v:val="VT0(0.15):1"/>
				<v:ud v:nameU="BotRightOffset" v:prompt="" v:val="VT0(0.15):1"/>
				<v:ud v:nameU="visVersion" v:prompt="" v:val="VT0(15):26"/>
				<v:ud v:nameU="TopLeftOffset" v:prompt="" v:val="VT0(0.054687436980501):1"/>
				<v:ud v:nameU="TopRightOffset" v:prompt="" v:val="VT0(0.054687436980501):1"/>
				<v:ud v:nameU="BotLeftOffset" v:prompt="" v:val="VT0(0.054687436980501):1"/>
				<v:ud v:nameU="BotRightOffset" v:prompt="" v:val="VT0(0.054687436980501):1"/>
			</v:userDefs>
			<v:textBlock v:margins="rect(4,4,4,4)" v:verticalAlign="0"/>
			<v:textRect cx="47.25" cy="405.111" width="94.51" height="65.25"/>
			<g id="shadow1891-25" v:groupContext="shadow" v:shadowOffsetX="0" v:shadowOffsetY="-0" v:shadowType="2"
					v:shadowScale="0.310001" v:shadowAngle="-56.9997" transform="matrix(1,0,0.259988,0.16884,-113.806,363.828)"
					class="st6">
				<path d="M3.94 437.74 L90.56 437.74 A3.93743 3.93743 -180 0 0 94.5 433.8 L94.5 376.42 A3.93743 3.93743 -180 0 0 90.56
							 372.49 L3.94 372.49 A3.93743 3.93743 -180 0 0 -0 376.42 L0 433.8 A3.93743 3.93743 -180 0 0 3.94 437.74
							 Z" class="st7"/>
			</g>
			<path d="M3.94 437.74 L90.56 437.74 A3.93743 3.93743 -180 0 0 94.5 433.8 L94.5 376.42 A3.93743 3.93743 -180 0 0 90.56
						 372.49 L3.94 372.49 A3.93743 3.93743 -180 0 0 -0 376.42 L0 433.8 A3.93743 3.93743 -180 0 0 3.94 437.74 Z"
					class="st8"/>
			<text x="37.43" y="385.49" class="st9" v:langID="1033"><v:paragraph v:horizAlign="1"/><v:tabList/>Podz</text>		</g>
		<g id="group1899-30" transform="translate(54.2499,-227.219)" v:mID="1899" v:groupContext="group">
			<title>Sheet.1899</title>
			<g id="shape1900-31" v:mID="1900" v:groupContext="shape">
				<title>Rounded Rectangle.937</title>
				<desc>Container...</desc>
				<v:userDefs>
					<v:ud v:nameU="CTypeTopLeftSnip" v:prompt="" v:val="VT0(0):5"/>
					<v:ud v:nameU="CTypeTopRightSnip" v:prompt="" v:val="VT0(0):5"/>
					<v:ud v:nameU="CTypeBotLeftSnip" v:prompt="" v:val="VT0(0):5"/>
					<v:ud v:nameU="CTypeBotRightSnip" v:prompt="" v:val="VT0(0):5"/>
					<v:ud v:nameU="CornerLockHoriz" v:prompt="" v:val="VT0(1):5"/>
					<v:ud v:nameU="CornerLockVert" v:prompt="" v:val="VT0(1):5"/>
					<v:ud v:nameU="CornerLockDiag" v:prompt="" v:val="VT0(0):5"/>
					<v:ud v:nameU="TopLeftOffset" v:prompt="" v:val="VT0(0.15):1"/>
					<v:ud v:nameU="TopRightOffset" v:prompt="" v:val="VT0(0.15):1"/>
					<v:ud v:nameU="BotLeftOffset" v:prompt="" v:val="VT0(0.15):1"/>
					<v:ud v:nameU="BotRightOffset" v:prompt="" v:val="VT0(0.15):1"/>
					<v:ud v:nameU="visVersion" v:prompt="" v:val="VT0(15):26"/>
					<v:ud v:nameU="TopLeftOffset" v:prompt="" v:val="VT0(0.035402114989932):1"/>
					<v:ud v:nameU="TopRightOffset" v:prompt="" v:val="VT0(0.035402114989932):1"/>
					<v:ud v:nameU="BotLeftOffset" v:prompt="" v:val="VT0(0.035402114989932):1"/>
					<v:ud v:nameU="BotRightOffset" v:prompt="" v:val="VT0(0.035402114989932):1"/>
				</v:userDefs>
				<v:textBlock v:margins="rect(4,4,4,4)"/>
				<v:textRect cx="42.0577" cy="416.079" width="84.12" height="43.3125"/>
				<path d="M2.55 437.74 L81.57 437.74 A2.54891 2.54891 -180 0 0 84.12 435.19 L84.12 396.97 A2.54891 2.54891 -180 0
							 0 81.57 394.42 L2.55 394.42 A2.54891 2.54891 -180 0 0 -0 396.97 L0 435.19 A2.54891 2.54891 -180 0 0
							 2.55 437.74 Z" class="st10"/>
				<text x="32.53" y="419.08" class="st11" v:langID="1033"><v:paragraph v:horizAlign="2"/><v:tabList/>Container...</text>			</g>
		</g>
		<g id="shape1933-34" v:mID="1933" v:groupContext="shape" transform="translate(757.486,158.527) rotate(90)">
			<title>Rounded Rectangle.1933</title>
			<desc>AWS Application Load Balancer</desc>
			<v:userDefs>
				<v:ud v:nameU="CTypeTopLeftSnip" v:prompt="" v:val="VT0(0):5"/>
				<v:ud v:nameU="CTypeTopRightSnip" v:prompt="" v:val="VT0(0):5"/>
				<v:ud v:nameU="CTypeBotLeftSnip" v:prompt="" v:val="VT0(0):5"/>
				<v:ud v:nameU="CTypeBotRightSnip" v:prompt="" v:val="VT0(0):5"/>
				<v:ud v:nameU="CornerLockHoriz" v:prompt="" v:val="VT0(1):5"/>
				<v:ud v:nameU="CornerLockVert" v:prompt="" v:val="VT0(1):5"/>
				<v:ud v:nameU="CornerLockDiag" v:prompt="" v:val="VT0(0):5"/>
				<v:ud v:nameU="TopLeftOffset" v:prompt="" v:val="VT0(0.15):1"/>
				<v:ud v:nameU="TopRightOffset" v:prompt="" v:val="VT0(0.15):1"/>
				<v:ud v:nameU="BotLeftOffset" v:prompt="" v:val="VT0(0.15):1"/>
				<v:ud v:nameU="BotRightOffset" v:prompt="" v:val="VT0(0.15):1"/>
				<v:ud v:nameU="visVersion" v:prompt="" v:val="VT0(15):26"/>
				<v:ud v:nameU="TopLeftOffset" v:prompt="" v:val="VT0(0.052059199875882):1"/>
				<v:ud v:nameU="TopRightOffset" v:prompt="" v:val="VT0(0.052059199875882):1"/>
				<v:ud v:nameU="BotLeftOffset" v:prompt="" v:val="VT0(0.052059199875882):1"/>
				<v:ud v:nameU="BotRightOffset" v:prompt="" v:val="VT0(0.052059199875882):1"/>
			</v:userDefs>
			<v:textBlock v:margins="rect(4,4,4,4)" v:verticalAlign="0"/>
			<v:textRect cx="44.9792" cy="415.236" width="89.96" height="45"/>
			<g id="shadow1933-35" v:groupContext="shadow" v:shadowOffsetX="0" v:shadowOffsetY="-0" v:shadowType="2"
					v:shadowScale="0.310001" v:shadowAngle="-56.9997" transform="matrix(0.16884,-0.259988,0,1,74.7698,23.3881)"
					class="st6">
				<path d="M3.75 437.74 L86.21 437.74 A3.7482 3.7482 -180 0 0 89.96 433.99 L89.96 396.48 A3.7482 3.7482 -180 0 0 86.21
							 392.74 L3.75 392.74 A3.7482 3.7482 -180 0 0 0 396.48 L0 433.99 A3.7482 3.7482 -180 0 0 3.75 437.74 Z"
						class="st7"/>
			</g>
			<path d="M3.75 437.74 L86.21 437.74 A3.7482 3.7482 -180 0 0 89.96 433.99 L89.96 396.48 A3.7482 3.7482 -180 0 0 86.21
						 392.74 L3.75 392.74 A3.7482 3.7482 -180 0 0 0 396.48 L0 433.99 A3.7482 3.7482 -180 0 0 3.75 437.74 Z"
					class="st13"/>
			<text x="11.17" y="405.74" class="st14" v:langID="1033"><v:paragraph v:horizAlign="1"/><v:tabList/>AWS Application <v:newlineChar/><tspan
						x="16.46" dy="1.2em" class="st12">Load Balancer</tspan></text>		</g>
		<g id="shape1934-41" v:mID="1934" v:groupContext="shape" transform="translate(198.25,-214)">
			<title>Rounded Rectangle.1934</title>
			<desc>Pod</desc>
			<v:userDefs>
				<v:ud v:nameU="CTypeTopLeftSnip" v:prompt="" v:val="VT0(0):5"/>
				<v:ud v:nameU="CTypeTopRightSnip" v:prompt="" v:val="VT0(0):5"/>
				<v:ud v:nameU="CTypeBotLeftSnip" v:prompt="" v:val="VT0(0):5"/>
				<v:ud v:nameU="CTypeBotRightSnip" v:prompt="" v:val="VT0(0):5"/>
				<v:ud v:nameU="CornerLockHoriz" v:prompt="" v:val="VT0(1):5"/>
				<v:ud v:nameU="CornerLockVert" v:prompt="" v:val="VT0(1):5"/>
				<v:ud v:nameU="CornerLockDiag" v:prompt="" v:val="VT0(0):5"/>
				<v:ud v:nameU="TopLeftOffset" v:prompt="" v:val="VT0(0.15):1"/>
				<v:ud v:nameU="TopRightOffset" v:prompt="" v:val="VT0(0.15):1"/>
				<v:ud v:nameU="BotLeftOffset" v:prompt="" v:val="VT0(0.15):1"/>
				<v:ud v:nameU="BotRightOffset" v:prompt="" v:val="VT0(0.15):1"/>
				<v:ud v:nameU="visVersion" v:prompt="" v:val="VT0(15):26"/>
				<v:ud v:nameU="TopLeftOffset" v:prompt="" v:val="VT0(0.062499918478239):1"/>
				<v:ud v:nameU="TopRightOffset" v:prompt="" v:val="VT0(0.062499918478239):1"/>
				<v:ud v:nameU="BotLeftOffset" v:prompt="" v:val="VT0(0.062499918478239):1"/>
				<v:ud v:nameU="BotRightOffset" v:prompt="" v:val="VT0(0.062499918478239):1"/>
			</v:userDefs>
			<v:textBlock v:margins="rect(4,4,4,4)" v:verticalAlign="0"/>
			<v:textRect cx="54" cy="405.111" width="108" height="65.25"/>
			<g id="shadow1934-42" v:groupContext="shadow" v:shadowOffsetX="0" v:shadowOffsetY="-0" v:shadowType="2"
					v:shadowScale="0.310001" v:shadowAngle="-56.9997" transform="matrix(1,0,0.259988,0.16884,-113.806,363.828)"
					class="st6">
				<path d="M4.5 437.74 L103.5 437.74 A4.49992 4.49992 -180 0 0 108 433.24 L108 376.99 A4.49992 4.49992 -180 0 0 103.5
							 372.49 L4.5 372.49 A4.49992 4.49992 -180 0 0 0 376.99 L0 433.24 A4.49992 4.49992 -180 0 0 4.5 437.74
							 Z" class="st7"/>
			</g>
			<path d="M4.5 437.74 L103.5 437.74 A4.49992 4.49992 -180 0 0 108 433.24 L108 376.99 A4.49992 4.49992 -180 0 0 103.5 372.49
						 L4.5 372.49 A4.49992 4.49992 -180 0 0 0 376.99 L0 433.24 A4.49992 4.49992 -180 0 0 4.5 437.74 Z"
					class="st8"/>
			<text x="46.15" y="385.49" class="st15" v:langID="1033"><v:paragraph v:horizAlign="1"/><v:tabList/>Pod</text>		</g>
		<g id="shape1935-47" v:mID="1935" v:groupContext="shape" transform="translate(202.75,-217.938)">
			<title>Rounded Rectangle.1935</title>
			<desc>Container E ALB Ingress Controller</desc>
			<v:userDefs>
				<v:ud v:nameU="CTypeTopLeftSnip" v:prompt="" v:val="VT0(0):5"/>
				<v:ud v:nameU="CTypeTopRightSnip" v:prompt="" v:val="VT0(0):5"/>
				<v:ud v:nameU="CTypeBotLeftSnip" v:prompt="" v:val="VT0(0):5"/>
				<v:ud v:nameU="CTypeBotRightSnip" v:prompt="" v:val="VT0(0):5"/>
				<v:ud v:nameU="CornerLockHoriz" v:prompt="" v:val="VT0(1):5"/>
				<v:ud v:nameU="CornerLockVert" v:prompt="" v:val="VT0(1):5"/>
				<v:ud v:nameU="CornerLockDiag" v:prompt="" v:val="VT0(0):5"/>
				<v:ud v:nameU="TopLeftOffset" v:prompt="" v:val="VT0(0.15):1"/>
				<v:ud v:nameU="TopRightOffset" v:prompt="" v:val="VT0(0.15):1"/>
				<v:ud v:nameU="BotLeftOffset" v:prompt="" v:val="VT0(0.15):1"/>
				<v:ud v:nameU="BotRightOffset" v:prompt="" v:val="VT0(0.15):1"/>
				<v:ud v:nameU="visVersion" v:prompt="" v:val="VT0(15):26"/>
				<v:ud v:nameU="TopLeftOffset" v:prompt="" v:val="VT0(0.041666698455815):1"/>
				<v:ud v:nameU="TopRightOffset" v:prompt="" v:val="VT0(0.041666698455815):1"/>
				<v:ud v:nameU="BotLeftOffset" v:prompt="" v:val="VT0(0.041666698455815):1"/>
				<v:ud v:nameU="BotRightOffset" v:prompt="" v:val="VT0(0.041666698455815):1"/>
			</v:userDefs>
			<v:textBlock v:margins="rect(4,4,4,4)"/>
			<v:textRect cx="49.5" cy="416.079" width="99.01" height="43.3125"/>
			<g id="shadow1935-48" v:groupContext="shadow" v:shadowOffsetX="0" v:shadowOffsetY="-0" v:shadowType="2"
					v:shadowScale="0.310001" v:shadowAngle="-56.9997" transform="matrix(1,0,0.259988,0.16884,-113.806,363.828)"
					class="st6">
				<path d="M3 437.74 L96 437.74 A2.99995 2.99995 -180 0 0 99 434.74 L99 397.42 A2.99995 2.99995 -180 0 0 96 394.42
							 L3 394.42 A2.99995 2.99995 -180 0 0 -0 397.42 L0 434.74 A2.99995 2.99995 -180 0 0 3 437.74 Z"
						class="st7"/>
			</g>
			<path d="M3 437.74 L96 437.74 A2.99995 2.99995 -180 0 0 99 434.74 L99 397.42 A2.99995 2.99995 -180 0 0 96 394.42 L3 394.42
						 A2.99995 2.99995 -180 0 0 -0 397.42 L0 434.74 A2.99995 2.99995 -180 0 0 3 437.74 Z" class="st13"/>
			<text x="47.85" y="413.08" class="st14" v:langID="1033"><v:paragraph v:horizAlign="2"/><v:tabList/>Container E<v:newlineChar/><tspan
						x="5.26" dy="1.2em" class="st12">ALB Ingress Controller</tspan></text>		</g>
		<g id="group1936-54" transform="translate(367,-275.486)" v:mID="1936" v:groupContext="group">
			<title>Sheet.1936</title>
			<g id="shape1818-55" v:mID="1818" v:groupContext="shape">
				<title>Sheet.1818</title>
				<desc>Internet</desc>
				<v:textBlock v:margins="rect(4,4,4,4)" v:verticalAlign="2"/>
				<v:textRect cx="137.25" cy="374.403" width="274.51" height="126.665"/>
				<g id="shadow1818-56" v:groupContext="shadow" v:shadowOffsetX="0" v:shadowOffsetY="-0" v:shadowType="2"
						v:shadowScale="0.310001" v:shadowAngle="-56.9997" transform="matrix(1,0,0.259988,0.16884,-113.806,363.828)"
						class="st6">
					<path d="M80.48 349.44 C77.41 348.61 74.17 348.12 70.76 348.12 C52.16 348.12 36.79 361.82 33.97 379.76 L33.97
								 379.76 L27.91 379.76 L27.91 379.76 C12.54 379.76 0 392.3 0 407.75 L0 407.75 L0 409.74 L0 409.74
								 C0 425.19 12.54 437.74 27.91 437.74 L27.91 437.74 L246.59 437.74 L246.59 437.74 C261.96 437.74 274.5
								 425.19 274.5 409.74 L274.5 409.74 L274.5 407.75 L274.5 407.75 C274.5 392.3 261.96 379.76 246.59
								 379.76 L246.59 379.76 L245.51 379.76 L245.51 379.76 C240.7 363.15 225.5 350.94 207.39 350.94 C199.5
								 350.94 192.19 353.35 186.05 357.33 C181.98 331.17 159.55 311.07 132.39 311.07 C107.97 311.07 87.37
								 327.18 80.48 349.44 Z" class="st7"/>
				</g>
				<path d="M80.48 349.44 C77.41 348.61 74.17 348.12 70.76 348.12 C52.16 348.12 36.79 361.82 33.97 379.76 L33.97 379.76
							 L27.91 379.76 L27.91 379.76 C12.54 379.76 0 392.3 0 407.75 L0 407.75 L0 409.74 L0 409.74 C0 425.19 12.54
							 437.74 27.91 437.74 L27.91 437.74 L246.59 437.74 L246.59 437.74 C261.96 437.74 274.5 425.19 274.5 409.74
							 L274.5 409.74 L274.5 407.75 L274.5 407.75 C274.5 392.3 261.96 379.76 246.59 379.76 L246.59 379.76 L245.51
							 379.76 L245.51 379.76 C240.7 363.15 225.5 350.94 207.39 350.94 C199.5 350.94 192.19 353.35 186.05 357.33
							 C181.98 331.17 159.55 311.07 132.39 311.07 C107.97 311.07 87.37 327.18 80.48 349.44 Z" class="st16"/>
				<text x="25.7" y="430.14" class="st17" v:langID="1033"><v:paragraph/><v:tabList/>Internet</text>			</g>
			<g id="group1819-61" transform="translate(104.619,-11.1092)" v:mID="1819" v:groupContext="group">
				<title>Sheet.1819</title>
				<g id="group1820-62" v:mID="1820" v:groupContext="group">
					<title>Sheet.1820</title>
					<g id="shape1821-63" v:mID="1821" v:groupContext="shape" transform="translate(28.9531,-1.71859)">
						<title>Sheet.1821</title>
						<path d="M6.86 434.31 C6.86 436.2 5.33 437.74 3.43 437.74 C1.54 437.74 0 436.2 0 434.31 C0 432.41 1.54 430.87
									 3.43 430.87 C5.33 430.87 6.86 432.41 6.86 434.31 Z" class="st18"/>
					</g>
					<g id="shape1822-65" v:mID="1822" v:groupContext="shape" transform="translate(14.5199,-4.96919)">
						<title>Sheet.1822</title>
						<path d="M6.89 435.53 C5.95 437.17 3.85 437.74 2.21 436.79 C0.57 435.84 0 433.74 0.95 432.1 C1.9 430.45 4
									 429.89 5.64 430.85 C7.28 431.79 7.84 433.89 6.89 435.53 Z" class="st18"/>
					</g>
					<g id="shape1823-67" v:mID="1823" v:groupContext="shape" transform="translate(4.60492,-14.7971)">
						<title>Sheet.1823</title>
						<path d="M6.1 435.83 C4.18 437.74 1 436.88 0.3 434.25 C0 433.11 0.34 431.85 1.19 431.02 C3.1 429.13 6.26
									 429.98 6.96 432.58 C7.28 433.72 6.94 434.99 6.1 435.83 Z" class="st18"/>
					</g>
					<g id="shape1824-69" v:mID="1824" v:groupContext="shape" transform="translate(1.0897,-29.6174)">
						<title>Sheet.1824</title>
						<path d="M3.43 437.73 C1.54 437.73 0 436.19 0 434.3 C0 432.4 1.54 430.87 3.44 430.87 C5.33 430.88 6.87 432.42
									 6.87 434.31 C6.86 436.2 5.32 437.74 3.43 437.73 Z" class="st18"/>
					</g>
					<g id="shape1825-71" v:mID="1825" v:groupContext="shape" transform="translate(4.3633,-43.0671)">
						<title>Sheet.1825</title>
						<path d="M2.2 436.79 C0.56 435.83 0 433.73 0.95 432.1 C1.9 430.45 4 429.9 5.64 430.85 C7.28 431.8 7.84 433.9
									 6.89 435.54 C5.94 437.18 3.84 437.74 2.2 436.79 Z" class="st18"/>
					</g>
					<g id="shape1826-73" v:mID="1826" v:groupContext="shape" transform="translate(14.5932,-53.2504)">
						<title>Sheet.1826</title>
						<path d="M0.95 435.52 C0 433.88 0.57 431.78 2.21 430.84 C3.85 429.9 5.95 430.47 6.89 432.11 C7.84 433.75
									 7.27 435.85 5.63 436.79 C3.98 437.74 1.89 437.17 0.95 435.52 Z" class="st18"/>
					</g>
					<g id="shape1827-75" v:mID="1827" v:groupContext="shape" transform="translate(29.0277,-57.4299)">
						<title>Sheet.1827</title>
						<path d="M0.01 434.29 C0.02 432.4 1.56 430.86 3.45 430.87 C5.34 430.87 6.88 432.42 6.87 434.31 C6.86 436.2
									 5.32 437.74 3.43 437.73 C1.53 437.72 0 436.18 0.01 434.29 Z" class="st18"/>
					</g>
					<g id="shape1828-77" v:mID="1828" v:groupContext="shape" transform="translate(42.4802,-53.1678)">
						<title>Sheet.1828</title>
						<path d="M0.95 432.09 C1.91 430.45 4 429.9 5.64 430.85 C7.28 431.8 7.83 433.91 6.88 435.54 C5.93 437.18 3.83
									 437.74 2.19 436.78 C0.55 435.83 0 433.73 0.95 432.09 Z" class="st18"/>
					</g>
					<g id="shape1829-79" v:mID="1829" v:groupContext="shape" transform="translate(52.6447,-42.9258)">
						<title>Sheet.1829</title>
						<path d="M2.21 430.84 C3.86 429.9 5.96 430.47 6.9 432.11 C7.84 433.76 7.27 435.86 5.62 436.8 C3.98 437.74
									 1.88 437.17 0.95 435.52 C0 433.88 0.57 431.78 2.21 430.84 Z" class="st18"/>
					</g>
					<g id="shape1830-81" v:mID="1830" v:groupContext="shape" transform="translate(56.8005,-29.4452)">
						<title>Sheet.1830</title>
						<path d="M3.46 430.86 C5.35 430.88 6.88 432.42 6.87 434.31 C6.86 436.21 5.32 437.74 3.43 437.73 C1.53 437.72
									 0 436.17 0.01 434.28 C0.02 432.38 1.56 430.86 3.46 430.86 Z" class="st18"/>
					</g>
					<g id="shape1831-83" v:mID="1831" v:groupContext="shape" transform="translate(52.523,-15.0435)">
						<title>Sheet.1831</title>
						<path d="M5.64 430.85 C7.28 431.81 7.84 433.92 6.88 435.55 C5.92 437.18 3.82 437.74 2.18 436.78 C0.55 435.83
									 0 433.72 0.95 432.09 C1.91 430.45 4.01 429.9 5.64 430.85 Z" class="st18"/>
					</g>
					<g id="shape1832-85" v:mID="1832" v:groupContext="shape" transform="translate(42.266,-4.88719)">
						<title>Sheet.1832</title>
						<path d="M6.89 432.11 C7.83 433.76 7.26 435.86 5.61 436.8 C3.96 437.74 1.87 437.16 0.93 435.52 C0 433.87
									 0.57 431.77 2.21 430.83 C3.86 429.9 5.96 430.47 6.89 432.11 Z" class="st18"/>
					</g>
					<g id="shape1833-87" v:mID="1833" v:groupContext="shape" transform="translate(27.2345,5.68434E-14)">
						<title>Sheet.1833</title>
						<path d="M5.92 430.37 C4.15 429.8 2.52 431.3 2.86 433.05 C3.03 433.96 3.78 434.7 4.69 434.88 C6.44 435.21
									 7.93 433.59 7.36 431.82 C7.14 431.14 6.59 430.59 5.92 430.37 ZM6.19 436.99 C2.89 437.74 0 434.84
									 0.74 431.54 C1.12 429.88 2.46 428.54 4.12 428.17 C7.41 427.44 10.29 430.33 9.56 433.62 C9.19
									 435.28 7.85 436.62 6.19 436.99 Z" class="st19"/>
					</g>
					<g id="shape1834-89" v:mID="1834" v:groupContext="shape" transform="translate(13.2463,-4.36297)">
						<title>Sheet.1834</title>
						<path d="M5.2 430.87 C4.36 430.87 3.59 431.32 3.17 432.04 C2.53 433.15 2.91 434.59 4.03 435.24 C5.11 435.86
									 6.6 435.45 7.22 434.38 C7.86 433.26 7.48 431.83 6.36 431.18 C6.01 430.98 5.61 430.87 5.2 430.87
									 ZM5.19 437.74 C4.09 437.74 3.01 437.33 2.17 436.58 C1.45 435.93 1 435.02 0.82 434.07 C0 429.83
									 4.52 427.59 7.46 429.29 C9.62 430.54 10.36 433.31 9.11 435.47 C8.31 436.87 6.8 437.74 5.19 437.74
									 L5.19 437.74 Z" class="st20"/>
						<path d="M5.2 430.87 C4.36 430.87 3.59 431.32 3.17 432.04 C2.53 433.15 2.91 434.59 4.03 435.24 C5.11 435.86
									 6.6 435.45 7.22 434.38 C7.86 433.26 7.48 431.83 6.36 431.18 C6.01 430.98 5.61 430.87 5.2 430.87M5.19
									 437.74 C4.09 437.74 3.01 437.33 2.17 436.58 C1.45 435.93 1 435.02 0.82 434.07 C0 429.83 4.52
									 427.59 7.46 429.29 C9.62 430.54 10.36 433.31 9.11 435.47 C8.31 436.87 6.8 437.74 5.19 437.74"
								class="st21"/>
					</g>
					<g id="shape1835-92" v:mID="1835" v:groupContext="shape" transform="translate(3.07825,-14.5779)">
						<title>Sheet.1835</title>
						<path d="M5.16 430.87 C4.76 430.87 4.35 430.98 4 431.18 C2.88 431.83 2.5 433.26 3.14 434.38 C3.76 435.45
									 5.25 435.86 6.33 435.24 C6.87 434.92 7.26 434.42 7.42 433.82 C7.59 433.22 7.5 432.59 7.19 432.04
									 C6.77 431.32 6 430.87 5.16 430.87 ZM5.17 437.74 C3.55 437.74 2.05 436.86 1.24 435.47 C0 433.31
									 0.75 430.54 2.91 429.29 C5 428.08 7.89 428.87 9.09 430.95 C9.69 432 9.85 433.22 9.54 434.38
									 C9.22 435.55 8.47 436.53 7.43 437.13 C6.74 437.52 5.96 437.74 5.17 437.74 L5.17 437.74 Z"
								class="st20"/>
						<path d="M5.16 430.87 C4.76 430.87 4.35 430.98 4 431.18 C2.88 431.83 2.5 433.26 3.14 434.38 C3.76 435.45
									 5.25 435.86 6.33 435.24 C6.87 434.92 7.26 434.42 7.42 433.82 C7.59 433.22 7.5 432.59 7.19 432.04
									 C6.77 431.32 6 430.87 5.16 430.87M5.17 437.74 C3.55 437.74 2.05 436.86 1.24 435.47 C0 433.31
									 0.75 430.54 2.91 429.29 C5 428.08 7.89 428.87 9.09 430.95 C9.69 432 9.85 433.22 9.54 434.38
									 C9.22 435.55 8.47 436.53 7.43 437.13 C6.74 437.52 5.96 437.74 5.17 437.74" class="st21"/>
					</g>
					<g id="shape1836-95" v:mID="1836" v:groupContext="shape" transform="translate(6.4948E-14,-28.524)">
						<title>Sheet.1836</title>
						<path d="M4.53 430.87 C3.24 430.87 2.19 431.92 2.19 433.2 C2.19 434.49 3.23 435.54 4.52 435.54 L4.53 436.64
									 L4.53 435.54 C5.81 435.54 6.86 434.5 6.86 433.21 C6.86 432.59 6.62 432 6.18 431.56 C5.74 431.12
									 5.15 430.87 4.53 430.87 ZM4.53 437.74 L4.52 437.74 C2.03 437.73 0 435.7 0 433.2 C0 430.71 2.03
									 428.69 4.53 428.69 C5.74 428.69 6.87 429.16 7.73 430.01 C8.59 430.87 9.05 432.01 9.05 433.22
									 C9.05 435.7 7.02 437.74 4.53 437.74 Z" class="st19"/>
					</g>
					<g id="shape1837-97" v:mID="1837" v:groupContext="shape" transform="translate(3.59708,-42.4608)">
						<title>Sheet.1837</title>
						<path d="M4.69 430.88 C3.86 430.88 3.08 431.32 2.67 432.04 C2.35 432.58 2.27 433.21 2.43 433.81 C2.59 434.42
									 2.97 434.92 3.52 435.24 C4.59 435.86 6.09 435.45 6.71 434.38 C7.02 433.85 7.11 433.21 6.95 432.61
									 C6.79 432.01 6.4 431.5 5.86 431.19 C5.5 430.98 5.1 430.88 4.69 430.88 ZM4.68 437.74 C3.89 437.74
									 3.11 437.52 2.42 437.13 C1.37 436.52 0.63 435.54 0.31 434.38 C0 433.2 0.17 431.99 0.77 430.94
									 C1.97 428.86 4.86 428.08 6.96 429.3 C8 429.9 8.75 430.88 9.06 432.05 C9.37 433.22 9.21 434.43
									 8.6 435.48 C7.79 436.87 6.29 437.74 4.68 437.74 Z" class="st19"/>
					</g>
					<g id="shape1838-99" v:mID="1838" v:groupContext="shape" transform="translate(13.828,-52.6447)">
						<title>Sheet.1838</title>
						<path d="M4.68 430.87 C4.28 430.87 3.88 430.98 3.53 431.18 C2.98 431.5 2.59 432 2.43 432.6 C2.27 433.2 2.35
									 433.83 2.66 434.38 C3.28 435.45 4.77 435.86 5.85 435.24 C6.39 434.93 6.78 434.42 6.94 433.82
									 C7.1 433.22 7.02 432.59 6.71 432.05 C6.29 431.32 5.52 430.87 4.68 430.87 L4.68 430.87 ZM4.69
									 437.74 C3.07 437.74 1.56 436.86 0.76 435.47 C0.16 434.42 0 433.2 0.32 432.03 C0.63 430.86 1.39
									 429.89 2.44 429.29 C4.52 428.09 7.41 428.87 8.61 430.96 C9.21 432.01 9.37 433.23 9.05 434.4
									 C8.74 435.56 7.98 436.53 6.94 437.13 C6.25 437.53 5.47 437.74 4.69 437.74 Z" class="st20"/>
						<path d="M4.68 430.87 C4.28 430.87 3.88 430.98 3.53 431.18 C2.98 431.5 2.59 432 2.43 432.6 C2.27 433.2 2.35
									 433.83 2.66 434.38 C3.28 435.45 4.77 435.86 5.85 435.24 C6.39 434.93 6.78 434.42 6.94 433.82
									 C7.1 433.22 7.02 432.59 6.71 432.05 C6.29 431.32 5.52 430.87 4.68 430.87M4.69 437.74 C3.07 437.74
									 1.56 436.86 0.76 435.47 C0.16 434.42 0 433.2 0.32 432.03 C0.63 430.86 1.39 429.89 2.44 429.29
									 C4.52 428.09 7.41 428.87 8.61 430.96 C9.21 432.01 9.37 433.23 9.05 434.4 C8.74 435.56 7.98 436.53
									 6.94 437.13 C6.25 437.53 5.47 437.74 4.69 437.74" class="st21"/>
					</g>
					<g id="shape1839-102" v:mID="1839" v:groupContext="shape" transform="translate(27.9373,-56.344)">
						<title>Sheet.1839</title>
						<path d="M4.54 430.88 C3.24 430.88 2.2 431.92 2.19 433.2 C2.19 433.83 2.43 434.42 2.87 434.86 C3.31 435.3
									 3.89 435.55 4.52 435.55 L4.53 436.64 L4.53 435.55 C5.81 435.55 6.86 434.5 6.86 433.22 C6.87
									 432.6 6.62 432.01 6.18 431.56 C5.74 431.12 5.16 430.88 4.54 430.88 L4.54 430.88 ZM4.53 437.74
									 L4.52 437.74 C3.31 437.74 2.17 437.26 1.32 436.4 C0.47 435.54 0 434.41 0 433.2 C0.01 430.71
									 2.04 428.69 4.53 428.69 C5.75 428.69 6.88 429.16 7.73 430.02 C8.59 430.88 9.06 432.02 9.05 433.22
									 C9.05 435.71 7.02 437.74 4.53 437.74 Z" class="st20"/>
						<path d="M4.54 430.88 C3.24 430.88 2.2 431.92 2.19 433.2 C2.19 433.83 2.43 434.42 2.87 434.86 C3.31 435.3
									 3.89 435.55 4.52 435.55 L4.53 436.64 L4.53 435.55 C5.81 435.55 6.86 434.5 6.86 433.22 C6.87
									 432.6 6.62 432.01 6.18 431.56 C5.74 431.12 5.16 430.88 4.54 430.88M4.53 437.74 L4.52 437.74
									 C3.31 437.74 2.17 437.26 1.32 436.4 C0.47 435.54 0 434.41 0 433.2 C0.01 430.71 2.04 428.69 4.53
									 428.69 C5.75 428.69 6.88 429.16 7.73 430.02 C8.59 430.88 9.06 432.02 9.05 433.22 C9.05 435.71
									 7.02 437.74 4.53 437.74" class="st21"/>
					</g>
					<g id="shape1840-105" v:mID="1840" v:groupContext="shape" transform="translate(41.2268,-52.5626)">
						<title>Sheet.1840</title>
						<path d="M5.18 430.88 C4.34 430.88 3.57 431.32 3.15 432.04 C2.5 433.15 2.88 434.58 3.99 435.23 C5.08 435.86
									 6.57 435.46 7.19 434.39 C7.5 433.85 7.59 433.22 7.43 432.61 C7.27 432.01 6.88 431.51 6.34 431.19
									 C5.98 430.99 5.58 430.88 5.18 430.88 ZM5.16 437.74 C4.37 437.74 3.58 437.52 2.89 437.12 C0.74
									 435.87 0 433.1 1.25 430.93 C2.47 428.86 5.36 428.09 7.45 429.3 C8.49 429.91 9.23 430.88 9.54
									 432.05 C9.85 433.22 9.69 434.44 9.08 435.49 C8.27 436.88 6.77 437.74 5.16 437.74 Z"
								class="st19"/>
					</g>
					<g id="shape1841-107" v:mID="1841" v:groupContext="shape" transform="translate(51.8789,-42.3169)">
						<title>Sheet.1841</title>
						<path d="M4.68 430.87 C4.28 430.87 3.87 430.98 3.52 431.18 C2.98 431.49 2.59 431.99 2.43 432.6 C2.21 433.42
									 2.44 434.29 3.08 434.92 C3.62 435.44 4.43 435.67 5.16 435.5 C6.79 435.13 7.47 433.37 6.71 432.05
									 C6.3 431.32 5.52 430.87 4.68 430.87 ZM4.69 437.74 C3.07 437.74 1.56 436.86 0.76 435.45 C0.16
									 434.41 0 433.19 0.32 432.02 C0.64 430.86 1.39 429.88 2.44 429.28 C4.54 428.08 7.42 428.88 8.61
									 430.96 C9.85 433.13 9.1 435.9 6.93 437.14 C6.25 437.53 5.47 437.74 4.69 437.74 Z" class="st19"/>
					</g>
					<g id="shape1842-109" v:mID="1842" v:groupContext="shape" transform="translate(55.7063,-28.3601)">
						<title>Sheet.1842</title>
						<path d="M4.54 430.87 C3.25 430.87 2.2 431.92 2.2 433.2 C2.19 433.83 2.43 434.41 2.87 434.85 C3.31 435.3
									 3.9 435.54 4.52 435.55 L4.53 436.64 L4.53 435.55 C5.82 435.55 6.86 434.51 6.87 433.22 C6.88
									 431.93 5.83 430.88 4.54 430.87 L4.54 430.87 ZM4.33 437.74 C3.84 437.74 3.36 437.65 2.91 437.47
									 C1.07 436.68 0 435.02 0.01 433.19 C0.02 430.7 2.05 428.69 4.53 428.69 C7.36 428.7 9.55 431.26
									 8.96 434.15 C8.53 436.29 6.51 437.74 4.33 437.74 Z" class="st20"/>
						<path d="M4.54 430.87 C3.25 430.87 2.2 431.92 2.2 433.2 C2.19 433.83 2.43 434.41 2.87 434.85 C3.31 435.3
									 3.9 435.54 4.52 435.55 L4.53 436.64 L4.53 435.55 C5.82 435.55 6.86 434.51 6.87 433.22 C6.88
									 431.93 5.83 430.88 4.54 430.87M4.33 437.74 C3.84 437.74 3.36 437.65 2.91 437.47 C1.07 436.68
									 0 435.02 0.01 433.19 C0.02 430.7 2.05 428.69 4.53 428.69 C7.36 428.7 9.55 431.26 8.96 434.15
									 C8.53 436.29 6.51 437.74 4.33 437.74" class="st21"/>
					</g>
					<g id="shape1843-112" v:mID="1843" v:groupContext="shape" transform="translate(51.2776,-14.434)">
						<title>Sheet.1843</title>
						<path d="M5.17 430.87 C4.34 430.87 3.56 431.31 3.14 432.03 C2.5 433.14 2.87 434.58 3.98 435.23 C5.06 435.86
									 6.56 435.46 7.18 434.38 C7.83 433.27 7.45 431.84 6.34 431.19 C5.98 430.98 5.57 430.87 5.17 430.87
									 ZM5.16 437.74 C4.36 437.74 3.57 437.52 2.88 437.12 C0.73 435.86 0 433.08 1.25 430.93 C2.46 428.86
									 5.36 428.09 7.44 429.3 C9.6 430.56 10.33 433.34 9.07 435.49 C8.26 436.88 6.76 437.74 5.16 437.74
									 Z" class="st19"/>
					</g>
					<g id="shape1844-114" v:mID="1844" v:groupContext="shape" transform="translate(41.0155,-4.28096)">
						<title>Sheet.1844</title>
						<path d="M5.16 430.87 C4.76 430.87 4.36 430.98 4.01 431.18 C2.89 431.82 2.5 433.25 3.14 434.37 C3.75 435.44
									 5.23 435.86 6.32 435.24 C7.44 434.6 7.84 433.17 7.2 432.05 C6.78 431.33 6 430.87 5.16 430.87
									 L5.16 430.87 ZM5.17 437.74 C3.54 437.74 2.04 436.86 1.23 435.45 C0 433.28 0.76 430.51 2.92 429.28
									 C5.02 428.08 7.91 428.88 9.1 430.97 C10.33 433.14 9.57 435.91 7.4 437.14 C6.72 437.53 5.95 437.74
									 5.17 437.74 Z" class="st20"/>
						<path d="M5.16 430.87 C4.76 430.87 4.36 430.98 4.01 431.18 C2.89 431.82 2.5 433.25 3.14 434.37 C3.75 435.44
									 5.23 435.86 6.32 435.24 C7.44 434.6 7.84 433.17 7.2 432.05 C6.78 431.33 6 430.87 5.16 430.87M5.17
									 437.74 C3.54 437.74 2.04 436.86 1.23 435.45 C0 433.28 0.76 430.51 2.92 429.28 C5.02 428.08 7.91
									 428.88 9.1 430.97 C10.33 433.14 9.57 435.91 7.4 437.14 C6.72 437.53 5.95 437.74 5.17 437.74"
								class="st21"/>
					</g>
					<g id="shape1845-117" v:mID="1845" v:groupContext="shape" transform="translate(17.7345,-18.7583)">
						<title>Sheet.1845</title>
						<path d="M14.25 409.24 C6.38 409.24 0 415.61 0 423.49 C0 431.36 6.38 437.74 14.25 437.74 C22.12 437.74 28.5
									 431.36 28.5 423.49 C28.5 415.61 22.12 409.24 14.25 409.24 Z" class="st18"/>
					</g>
					<g id="shape1846-119" v:mID="1846" v:groupContext="shape" transform="translate(13.1945,-13.8243)">
						<title>Sheet.1846</title>
						<path d="M19.19 401.99 C10.06 401.99 2.63 409.42 2.63 418.55 C2.63 427.68 10.05 435.11 19.19 435.11 C28.32
									 435.11 35.75 427.68 35.75 418.55 C35.75 409.42 28.32 401.99 19.19 401.99 ZM19.19 437.74 C8.61
									 437.74 0 429.13 0 418.55 C0 407.97 8.61 399.36 19.19 399.36 C29.77 399.36 38.38 407.97 38.38
									 418.55 C38.38 429.13 29.77 437.74 19.19 437.74 Z" class="st19"/>
					</g>
					<g id="shape1847-121" v:mID="1847" v:groupContext="shape" transform="translate(37.0854,-14.9338)">
						<title>Sheet.1847</title>
						<path d="M1.5 437.74 C1.26 437.74 1.02 437.67 0.8 437.53 C0.18 437.15 0 436.34 0.38 435.73 C3.12 431.36 4.62
									 425.64 4.62 419.61 C4.62 413.65 3.14 407.96 0.46 403.61 C0.08 403 0.27 402.19 0.89 401.81 C1.5
									 401.43 2.31 401.62 2.7 402.24 C5.63 406.99 7.25 413.17 7.25 419.61 C7.25 426.12 5.6 432.34 2.61
									 437.12 C2.36 437.52 1.93 437.74 1.5 437.74 L1.5 437.74 Z" class="st20"/>
						<path d="M1.5 437.74 C1.26 437.74 1.02 437.67 0.8 437.53 C0.18 437.15 0 436.34 0.38 435.73 C3.12 431.36 4.62
									 425.64 4.62 419.61 C4.62 413.65 3.14 407.96 0.46 403.61 C0.08 403 0.27 402.19 0.89 401.81 C1.5
									 401.43 2.31 401.62 2.7 402.24 C5.63 406.99 7.25 413.17 7.25 419.61 C7.25 426.12 5.6 432.34 2.61
									 437.12 C2.36 437.52 1.93 437.74 1.5 437.74" class="st21"/>
					</g>
					<g id="shape1848-124" v:mID="1848" v:groupContext="shape" transform="translate(20.8866,-14.9343)">
						<title>Sheet.1848</title>
						<path d="M5.75 437.74 C5.32 437.74 4.89 437.52 4.64 437.12 C1.65 432.34 0 426.12 0 419.61 C0 413.16 1.62
									 406.99 4.56 402.24 C4.94 401.62 5.74 401.43 6.36 401.81 C6.98 402.19 7.17 403 6.79 403.61 C4.11
									 407.96 2.63 413.64 2.63 419.61 C2.63 425.64 4.13 431.36 6.86 435.73 C7.25 436.34 7.06 437.15
									 6.45 437.53 C6.23 437.67 5.99 437.74 5.75 437.74 L5.75 437.74 Z" class="st20"/>
						<path d="M5.75 437.74 C5.32 437.74 4.89 437.52 4.64 437.12 C1.65 432.34 0 426.12 0 419.61 C0 413.16 1.62
									 406.99 4.56 402.24 C4.94 401.62 5.74 401.43 6.36 401.81 C6.98 402.19 7.17 403 6.79 403.61 C4.11
									 407.96 2.63 413.64 2.63 419.61 C2.63 425.64 4.13 431.36 6.86 435.73 C7.25 436.34 7.06 437.15
									 6.45 437.53 C6.23 437.67 5.99 437.74 5.75 437.74" class="st21"/>
					</g>
					<g id="shape1849-127" v:mID="1849" v:groupContext="shape" transform="translate(31.07,-13.8243)">
						<title>Sheet.1849</title>
						<path d="M1.31 437.74 C0.59 437.74 0 437.15 0 436.42 L0 400.68 C0 399.95 0.59 399.36 1.31 399.36 C2.04 399.36
									 2.62 399.95 2.62 400.68 L2.62 436.42 C2.62 437.15 2.04 437.74 1.31 437.74 Z" class="st19"/>
					</g>
					<g id="shape1850-129" v:mID="1850" v:groupContext="shape" transform="translate(13.1951,-31.6953)">
						<title>Sheet.1850</title>
						<path d="M37.06 437.74 L1.32 437.74 C0.59 437.74 0 437.15 0 436.42 C0 435.7 0.59 435.11 1.32 435.11 L37.06
									 435.11 C37.79 435.11 38.37 435.7 38.37 436.42 C38.37 437.15 37.79 437.74 37.06 437.74 Z"
								class="st19"/>
					</g>
					<g id="shape1851-131" v:mID="1851" v:groupContext="shape" transform="translate(15.945,-40.1913)">
						<title>Sheet.1851</title>
						<path d="M32.18 437.74 L1.31 437.74 C0.59 437.74 0 437.15 0 436.42 C0 435.7 0.59 435.11 1.31 435.11 L32.18
									 435.11 C32.91 435.11 33.49 435.7 33.49 436.42 C33.49 437.15 32.91 437.74 32.18 437.74 Z"
								class="st19"/>
					</g>
					<g id="shape1852-133" v:mID="1852" v:groupContext="shape" transform="translate(15.3391,-23.2033)">
						<title>Sheet.1852</title>
						<path d="M32.46 437.74 L1.32 437.74 C0.59 437.74 0 437.15 0 436.42 C0 435.7 0.59 435.11 1.32 435.11 L32.46
									 435.11 C33.18 435.11 33.77 435.7 33.77 436.42 C33.77 437.15 33.18 437.74 32.46 437.74 Z"
								class="st19"/>
					</g>
				</g>
			</g>
			<g id="shape1853-135" v:mID="1853" v:groupContext="shape" transform="translate(166.5,-94.5)">
				<title>Sheet.1853</title>
				<desc>NetFoundry Internet Overlay Fabric</desc>
				<v:textBlock v:margins="rect(4,4,4,4)"/>
				<v:textRect cx="54" cy="421.703" width="108.01" height="32.0663"/>
				<rect x="0" y="405.669" width="108" height="32.0663" class="st22"/>
				<text x="24.95" y="410.9" class="st23" v:langID="1033"><v:paragraph v:horizAlign="1"/><v:tabList/>NetFoundry <tspan
							x="14.02" dy="1.2em" class="st12">Internet Overlay </tspan><tspan x="39.21" dy="1.2em" class="st12">Fabric</tspan></text>			</g>
		</g>
		<g id="shape1883-140" v:mID="1883" v:groupContext="shape" transform="translate(184.75,-353.673)">
			<title>Rounded Rectangle.1883</title>
			<desc>Container B</desc>
			<v:userDefs>
				<v:ud v:nameU="CTypeTopLeftSnip" v:prompt="" v:val="VT0(0):5"/>
				<v:ud v:nameU="CTypeTopRightSnip" v:prompt="" v:val="VT0(0):5"/>
				<v:ud v:nameU="CTypeBotLeftSnip" v:prompt="" v:val="VT0(0):5"/>
				<v:ud v:nameU="CTypeBotRightSnip" v:prompt="" v:val="VT0(0):5"/>
				<v:ud v:nameU="CornerLockHoriz" v:prompt="" v:val="VT0(1):5"/>
				<v:ud v:nameU="CornerLockVert" v:prompt="" v:val="VT0(1):5"/>
				<v:ud v:nameU="CornerLockDiag" v:prompt="" v:val="VT0(0):5"/>
				<v:ud v:nameU="TopLeftOffset" v:prompt="" v:val="VT0(0.15):1"/>
				<v:ud v:nameU="TopRightOffset" v:prompt="" v:val="VT0(0.15):1"/>
				<v:ud v:nameU="BotLeftOffset" v:prompt="" v:val="VT0(0.15):1"/>
				<v:ud v:nameU="BotRightOffset" v:prompt="" v:val="VT0(0.15):1"/>
				<v:ud v:nameU="visVersion" v:prompt="" v:val="VT0(15):26"/>
				<v:ud v:nameU="TopLeftOffset" v:prompt="" v:val="VT0(0.049242461811413):1"/>
				<v:ud v:nameU="TopRightOffset" v:prompt="" v:val="VT0(0.049242461811413):1"/>
				<v:ud v:nameU="BotLeftOffset" v:prompt="" v:val="VT0(0.049242461811413):1"/>
				<v:ud v:nameU="BotRightOffset" v:prompt="" v:val="VT0(0.049242461811413):1"/>
			</v:userDefs>
			<v:textBlock v:margins="rect(4,4,4,4)" v:verticalAlign="0"/>
			<v:textRect cx="58.5" cy="416.079" width="117" height="43.3125"/>
			<path d="M3.55 437.74 L113.45 437.74 A3.5454 3.5454 -180 0 0 117 434.19 L117 397.97 A3.5454 3.5454 -180 0 0 113.45 394.42
						 L3.55 394.42 A3.5454 3.5454 -180 0 0 0 397.97 L0 434.19 A3.5454 3.5454 -180 0 0 3.55 437.74 Z"
					class="st10"/>
			<text x="65.29" y="407.42" class="st11" v:langID="1033"><v:paragraph v:horizAlign="2"/><v:tabList/>Container B<v:newlineChar/></text>		</g>
		<g id="shape1974-143" v:mID="1974" v:groupContext="shape" transform="translate(166.75,-189.25)">
			<title>Sheet.1974</title>
			<path d="M0 256.61 L37.12 256.61 L37.12 297.11 L338.56 295.99 L337.5 437.74" class="st24"/>
		</g>
		<g id="group1884-146" transform="translate(184.75,-356.486)" v:mID="1884" v:groupContext="group">
			<title>Sheet.1884</title>
			<g id="shape1889-147" v:mID="1889" v:groupContext="shape" transform="translate(0,-1.40626)">
				<title>Sheet.1889</title>
				<desc>NetFoundry Tunneler</desc>
				<v:textBlock v:margins="rect(4,4,4,4)" v:verticalAlign="0"/>
				<v:textRect cx="58.5" cy="428.258" width="117" height="18.9563"/>
				<rect x="0" y="418.779" width="117" height="18.9563" class="st22"/>
				<text x="25.95" y="431.78" class="st11" v:langID="1033"><v:paragraph v:horizAlign="2"/><v:tabList/>NetFoundry Tunneler</text>			</g>
			<g id="group1885-150" transform="translate(2.64372,5.68434E-14)" v:mID="1885" v:groupContext="group">
				<title>Sheet.1885</title>
				<g id="group1886-151" v:mID="1886" v:groupContext="group">
					<title>Logo_Mark</title>
					<g id="shape1887-152" v:mID="1887" v:groupContext="shape">
						<title>Sheet.1887</title>
						<ellipse cx="10.4063" cy="427.329" rx="10.4063" ry="10.4063" class="st25"/>
					</g>
					<g id="shape1888-156" v:mID="1888" v:groupContext="shape" transform="translate(4.61926,-1.28141)">
						<title>Sheet.1888</title>
						<path d="M5.83 419.3 L0 428.17 L3.31 430.33 L3.85 429.49 L5.58 437.74 L11.32 428.82 L8.1 426.71 L7.55 427.56
									 L5.83 419.3 ZM8.44 428.2 L9.86 429.15 L6.09 434.92 L4.35 426.68 L2.95 428.83 L1.56 427.92 L5.35
									 422.12 L7.07 430.31 L8.44 428.2 Z" class="st26"/>
					</g>
				</g>
			</g>
		</g>
		<g id="group1976-158" transform="translate(484.562,-300.236)" v:mID="1976" v:groupContext="group">
			<title>Sheet.1976</title>
			<g id="group1977-159" v:mID="1977" v:groupContext="group">
				<title>Logo_Mark</title>
				<g id="shape1978-160" v:mID="1978" v:groupContext="shape">
					<title>Sheet.1978</title>
					<ellipse cx="19.4062" cy="418.33" rx="19.4062" ry="19.4062" class="st25"/>
				</g>
				<g id="shape1979-163" v:mID="1979" v:groupContext="shape" transform="translate(8.61428,-2.38964)">
					<title>Sheet.1979</title>
					<path d="M10.87 403.36 L0 419.89 L6.17 423.92 L7.19 422.36 L10.41 437.74 L21.1 421.1 L15.11 417.17 L14.09 418.75
								 L10.87 403.36 ZM15.74 419.95 L18.38 421.72 L11.35 432.49 L8.11 417.12 L5.49 421.12 L2.91 419.43
								 L9.98 408.62 L13.18 423.88 L15.74 419.95 Z" class="st26"/>
				</g>
			</g>
		</g>
		<g id="shape2065-165" v:mID="2065" v:groupContext="shape" transform="translate(71.1249,-205)">
			<title>Rounded Rectangle.2065</title>
			<desc>Pody</desc>
			<v:userDefs>
				<v:ud v:nameU="CTypeTopLeftSnip" v:prompt="" v:val="VT0(0):5"/>
				<v:ud v:nameU="CTypeTopRightSnip" v:prompt="" v:val="VT0(0):5"/>
				<v:ud v:nameU="CTypeBotLeftSnip" v:prompt="" v:val="VT0(0):5"/>
				<v:ud v:nameU="CTypeBotRightSnip" v:prompt="" v:val="VT0(0):5"/>
				<v:ud v:nameU="CornerLockHoriz" v:prompt="" v:val="VT0(1):5"/>
				<v:ud v:nameU="CornerLockVert" v:prompt="" v:val="VT0(1):5"/>
				<v:ud v:nameU="CornerLockDiag" v:prompt="" v:val="VT0(0):5"/>
				<v:ud v:nameU="TopLeftOffset" v:prompt="" v:val="VT0(0.15):1"/>
				<v:ud v:nameU="TopRightOffset" v:prompt="" v:val="VT0(0.15):1"/>
				<v:ud v:nameU="BotLeftOffset" v:prompt="" v:val="VT0(0.15):1"/>
				<v:ud v:nameU="BotRightOffset" v:prompt="" v:val="VT0(0.15):1"/>
				<v:ud v:nameU="visVersion" v:prompt="" v:val="VT0(15):26"/>
				<v:ud v:nameU="TopLeftOffset" v:prompt="" v:val="VT0(0.054687436980501):1"/>
				<v:ud v:nameU="TopRightOffset" v:prompt="" v:val="VT0(0.054687436980501):1"/>
				<v:ud v:nameU="BotLeftOffset" v:prompt="" v:val="VT0(0.054687436980501):1"/>
				<v:ud v:nameU="BotRightOffset" v:prompt="" v:val="VT0(0.054687436980501):1"/>
			</v:userDefs>
			<v:textBlock v:margins="rect(4,4,4,4)" v:verticalAlign="0"/>
			<v:textRect cx="47.25" cy="405.111" width="94.51" height="65.25"/>
			<g id="shadow2065-166" v:groupContext="shadow" v:shadowOffsetX="0" v:shadowOffsetY="-0" v:shadowType="2"
					v:shadowScale="0.310001" v:shadowAngle="-56.9997" transform="matrix(1,0,0.259988,0.16884,-113.806,363.828)"
					class="st6">
				<path d="M3.94 437.74 L90.56 437.74 A3.93743 3.93743 -180 0 0 94.5 433.8 L94.5 376.42 A3.93743 3.93743 -180 0 0 90.56
							 372.49 L3.94 372.49 A3.93743 3.93743 -180 0 0 -0 376.42 L0 433.8 A3.93743 3.93743 -180 0 0 3.94 437.74
							 Z" class="st7"/>
			</g>
			<path d="M3.94 437.74 L90.56 437.74 A3.93743 3.93743 -180 0 0 94.5 433.8 L94.5 376.42 A3.93743 3.93743 -180 0 0 90.56
						 372.49 L3.94 372.49 A3.93743 3.93743 -180 0 0 -0 376.42 L0 433.8 A3.93743 3.93743 -180 0 0 3.94 437.74 Z"
					class="st8"/>
			<text x="37.14" y="385.49" class="st9" v:langID="1033"><v:paragraph v:horizAlign="1"/><v:tabList/>Pody</text>		</g>
		<g id="group2066-171" transform="translate(76.7499,-212.594)" v:mID="2066" v:groupContext="group">
			<title>Sheet.2066</title>
			<g id="shape2067-172" v:mID="2067" v:groupContext="shape">
				<title>Rounded Rectangle.937</title>
				<desc>Container...</desc>
				<v:userDefs>
					<v:ud v:nameU="CTypeTopLeftSnip" v:prompt="" v:val="VT0(0):5"/>
					<v:ud v:nameU="CTypeTopRightSnip" v:prompt="" v:val="VT0(0):5"/>
					<v:ud v:nameU="CTypeBotLeftSnip" v:prompt="" v:val="VT0(0):5"/>
					<v:ud v:nameU="CTypeBotRightSnip" v:prompt="" v:val="VT0(0):5"/>
					<v:ud v:nameU="CornerLockHoriz" v:prompt="" v:val="VT0(1):5"/>
					<v:ud v:nameU="CornerLockVert" v:prompt="" v:val="VT0(1):5"/>
					<v:ud v:nameU="CornerLockDiag" v:prompt="" v:val="VT0(0):5"/>
					<v:ud v:nameU="TopLeftOffset" v:prompt="" v:val="VT0(0.15):1"/>
					<v:ud v:nameU="TopRightOffset" v:prompt="" v:val="VT0(0.15):1"/>
					<v:ud v:nameU="BotLeftOffset" v:prompt="" v:val="VT0(0.15):1"/>
					<v:ud v:nameU="BotRightOffset" v:prompt="" v:val="VT0(0.15):1"/>
					<v:ud v:nameU="visVersion" v:prompt="" v:val="VT0(15):26"/>
					<v:ud v:nameU="TopLeftOffset" v:prompt="" v:val="VT0(0.035402114989932):1"/>
					<v:ud v:nameU="TopRightOffset" v:prompt="" v:val="VT0(0.035402114989932):1"/>
					<v:ud v:nameU="BotLeftOffset" v:prompt="" v:val="VT0(0.035402114989932):1"/>
					<v:ud v:nameU="BotRightOffset" v:prompt="" v:val="VT0(0.035402114989932):1"/>
				</v:userDefs>
				<v:textBlock v:margins="rect(4,4,4,4)"/>
				<v:textRect cx="42.0577" cy="416.079" width="84.12" height="43.3125"/>
				<path d="M2.55 437.74 L81.57 437.74 A2.54891 2.54891 -180 0 0 84.12 435.19 L84.12 396.97 A2.54891 2.54891 -180 0
							 0 81.57 394.42 L2.55 394.42 A2.54891 2.54891 -180 0 0 -0 396.97 L0 435.19 A2.54891 2.54891 -180 0 0
							 2.55 437.74 Z" class="st10"/>
				<text x="32.53" y="419.08" class="st11" v:langID="1033"><v:paragraph v:horizAlign="2"/><v:tabList/>Container...</text>			</g>
		</g>
		<g id="shape2068-175" v:mID="2068" v:groupContext="shape" transform="translate(93.6248,-190.375)">
			<title>Rounded Rectangle.2068</title>
			<desc>Podx</desc>
			<v:userDefs>
				<v:ud v:nameU="CTypeTopLeftSnip" v:prompt="" v:val="VT0(0):5"/>
				<v:ud v:nameU="CTypeTopRightSnip" v:prompt="" v:val="VT0(0):5"/>
				<v:ud v:nameU="CTypeBotLeftSnip" v:prompt="" v:val="VT0(0):5"/>
				<v:ud v:nameU="CTypeBotRightSnip" v:prompt="" v:val="VT0(0):5"/>
				<v:ud v:nameU="CornerLockHoriz" v:prompt="" v:val="VT0(1):5"/>
				<v:ud v:nameU="CornerLockVert" v:prompt="" v:val="VT0(1):5"/>
				<v:ud v:nameU="CornerLockDiag" v:prompt="" v:val="VT0(0):5"/>
				<v:ud v:nameU="TopLeftOffset" v:prompt="" v:val="VT0(0.15):1"/>
				<v:ud v:nameU="TopRightOffset" v:prompt="" v:val="VT0(0.15):1"/>
				<v:ud v:nameU="BotLeftOffset" v:prompt="" v:val="VT0(0.15):1"/>
				<v:ud v:nameU="BotRightOffset" v:prompt="" v:val="VT0(0.15):1"/>
				<v:ud v:nameU="visVersion" v:prompt="" v:val="VT0(15):26"/>
				<v:ud v:nameU="TopLeftOffset" v:prompt="" v:val="VT0(0.054687436980501):1"/>
				<v:ud v:nameU="TopRightOffset" v:prompt="" v:val="VT0(0.054687436980501):1"/>
				<v:ud v:nameU="BotLeftOffset" v:prompt="" v:val="VT0(0.054687436980501):1"/>
				<v:ud v:nameU="BotRightOffset" v:prompt="" v:val="VT0(0.054687436980501):1"/>
			</v:userDefs>
			<v:textBlock v:margins="rect(4,4,4,4)" v:verticalAlign="0"/>
			<v:textRect cx="47.25" cy="405.111" width="94.51" height="65.25"/>
			<g id="shadow2068-176" v:groupContext="shadow" v:shadowOffsetX="0" v:shadowOffsetY="-0" v:shadowType="2"
					v:shadowScale="0.310001" v:shadowAngle="-56.9997" transform="matrix(1,0,0.259988,0.16884,-113.806,363.828)"
					class="st6">
				<path d="M3.94 437.74 L90.56 437.74 A3.93743 3.93743 -180 0 0 94.5 433.8 L94.5 376.42 A3.93743 3.93743 -180 0 0 90.56
							 372.49 L3.94 372.49 A3.93743 3.93743 -180 0 0 -0 376.42 L0 433.8 A3.93743 3.93743 -180 0 0 3.94 437.74
							 Z" class="st7"/>
			</g>
			<path d="M3.94 437.74 L90.56 437.74 A3.93743 3.93743 -180 0 0 94.5 433.8 L94.5 376.42 A3.93743 3.93743 -180 0 0 90.56
						 372.49 L3.94 372.49 A3.93743 3.93743 -180 0 0 -0 376.42 L0 433.8 A3.93743 3.93743 -180 0 0 3.94 437.74 Z"
					class="st8"/>
			<text x="37.24" y="385.49" class="st9" v:langID="1033"><v:paragraph v:horizAlign="1"/><v:tabList/>Podx</text>		</g>
		<g id="group2069-181" transform="translate(99.2499,-197.969)" v:mID="2069" v:groupContext="group">
			<title>Sheet.2069</title>
			<g id="shape2070-182" v:mID="2070" v:groupContext="shape">
				<title>Rounded Rectangle.937</title>
				<desc>Container...</desc>
				<v:userDefs>
					<v:ud v:nameU="CTypeTopLeftSnip" v:prompt="" v:val="VT0(0):5"/>
					<v:ud v:nameU="CTypeTopRightSnip" v:prompt="" v:val="VT0(0):5"/>
					<v:ud v:nameU="CTypeBotLeftSnip" v:prompt="" v:val="VT0(0):5"/>
					<v:ud v:nameU="CTypeBotRightSnip" v:prompt="" v:val="VT0(0):5"/>
					<v:ud v:nameU="CornerLockHoriz" v:prompt="" v:val="VT0(1):5"/>
					<v:ud v:nameU="CornerLockVert" v:prompt="" v:val="VT0(1):5"/>
					<v:ud v:nameU="CornerLockDiag" v:prompt="" v:val="VT0(0):5"/>
					<v:ud v:nameU="TopLeftOffset" v:prompt="" v:val="VT0(0.15):1"/>
					<v:ud v:nameU="TopRightOffset" v:prompt="" v:val="VT0(0.15):1"/>
					<v:ud v:nameU="BotLeftOffset" v:prompt="" v:val="VT0(0.15):1"/>
					<v:ud v:nameU="BotRightOffset" v:prompt="" v:val="VT0(0.15):1"/>
					<v:ud v:nameU="visVersion" v:prompt="" v:val="VT0(15):26"/>
					<v:ud v:nameU="TopLeftOffset" v:prompt="" v:val="VT0(0.035402114989932):1"/>
					<v:ud v:nameU="TopRightOffset" v:prompt="" v:val="VT0(0.035402114989932):1"/>
					<v:ud v:nameU="BotLeftOffset" v:prompt="" v:val="VT0(0.035402114989932):1"/>
					<v:ud v:nameU="BotRightOffset" v:prompt="" v:val="VT0(0.035402114989932):1"/>
				</v:userDefs>
				<v:textBlock v:margins="rect(4,4,4,4)"/>
				<v:textRect cx="42.0577" cy="416.079" width="84.12" height="43.3125"/>
				<path d="M2.55 437.74 L81.57 437.74 A2.54891 2.54891 -180 0 0 84.12 435.19 L84.12 396.97 A2.54891 2.54891 -180 0
							 0 81.57 394.42 L2.55 394.42 A2.54891 2.54891 -180 0 0 -0 396.97 L0 435.19 A2.54891 2.54891 -180 0 0
							 2.55 437.74 Z" class="st10"/>
				<text x="32.53" y="419.08" class="st11" v:langID="1033"><v:paragraph v:horizAlign="2"/><v:tabList/>Container...</text>			</g>
		</g>
		<g id="shape2072-185" v:mID="2072" v:groupContext="shape" transform="translate(403.562,-117.25)">
			<title>Rounded Rectangle.2072</title>
			<desc>eth0.me service</desc>
			<v:userDefs>
				<v:ud v:nameU="CTypeTopLeftSnip" v:prompt="" v:val="VT0(0):5"/>
				<v:ud v:nameU="CTypeTopRightSnip" v:prompt="" v:val="VT0(0):5"/>
				<v:ud v:nameU="CTypeBotLeftSnip" v:prompt="" v:val="VT0(0):5"/>
				<v:ud v:nameU="CTypeBotRightSnip" v:prompt="" v:val="VT0(0):5"/>
				<v:ud v:nameU="CornerLockHoriz" v:prompt="" v:val="VT0(1):5"/>
				<v:ud v:nameU="CornerLockVert" v:prompt="" v:val="VT0(1):5"/>
				<v:ud v:nameU="CornerLockDiag" v:prompt="" v:val="VT0(0):5"/>
				<v:ud v:nameU="TopLeftOffset" v:prompt="" v:val="VT0(0.15):1"/>
				<v:ud v:nameU="TopRightOffset" v:prompt="" v:val="VT0(0.15):1"/>
				<v:ud v:nameU="BotLeftOffset" v:prompt="" v:val="VT0(0.15):1"/>
				<v:ud v:nameU="BotRightOffset" v:prompt="" v:val="VT0(0.15):1"/>
				<v:ud v:nameU="visVersion" v:prompt="" v:val="VT0(15):26"/>
				<v:ud v:nameU="TopLeftOffset" v:prompt="" v:val="VT0(0.073601991281464):1"/>
				<v:ud v:nameU="TopRightOffset" v:prompt="" v:val="VT0(0.073601991281464):1"/>
				<v:ud v:nameU="BotLeftOffset" v:prompt="" v:val="VT0(0.073601991281464):1"/>
				<v:ud v:nameU="BotRightOffset" v:prompt="" v:val="VT0(0.073601991281464):1"/>
			</v:userDefs>
			<v:textBlock v:margins="rect(2,2,2,2)"/>
			<v:textRect cx="100.688" cy="401.736" width="201.38" height="72"/>
			<path d="M5.3 437.74 L196.08 437.74 A5.29926 5.29926 -180 0 0 201.38 432.44 L201.38 371.04 A5.29926 5.29926 -180 0 0
						 196.08 365.74 L5.3 365.74 A5.29926 5.29926 -180 0 0 0 371.04 L0 432.44 A5.29926 5.29926 -180 0 0 5.3 437.74
						 Z" class="st27"/>
			<text x="22.95" y="408.94" class="st28" v:langID="1033"><v:paragraph v:horizAlign="1"/><v:tabList/>eth0.me service</text>		</g>
		<g id="group2073-188" transform="translate(6.99981,-0.25)" v:mID="2073" v:groupContext="group">
			<title>Sheet.2073</title>
			<g id="group1855-189" transform="translate(4.50004,-72)" v:mID="1855" v:groupContext="group">
				<title>Sheet.1855</title>
				<g id="group1856-190" v:mID="1856" v:groupContext="group">
					<title>Sheet.1856</title>
					<g id="shape1857-191" v:mID="1857" v:groupContext="shape" transform="translate(3.24844,-19.6279)">
						<title>Sheet.1857</title>
						<path d="M16.54 431.17 C16.54 432.02 16.63 432.7 16.79 433.21 C16.97 433.71 17.2 434.26 17.52 434.85 C17.64
									 435.04 17.68 435.22 17.68 435.38 C17.68 435.61 17.55 435.84 17.25 436.07 L15.81 437.03 C15.6
									 437.16 15.4 437.23 15.21 437.23 C14.98 437.23 14.76 437.12 14.53 436.91 C14.21 436.57 13.93
									 436.2 13.7 435.84 C13.47 435.45 13.25 435.01 12.99 434.49 C11.21 436.59 8.97 437.64 6.27 437.64
									 C4.35 437.64 2.81 437.1 1.69 436 C0.57 434.9 0 433.43 0 431.6 C0 429.66 0.69 428.08 2.08 426.89
									 C3.48 425.7 5.33 425.11 7.69 425.11 C8.46 425.11 9.26 425.18 10.11 425.29 C10.96 425.41 11.83
									 425.59 12.74 425.79 L12.74 424.12 C12.74 422.39 12.38 421.17 11.67 420.46 C10.93 419.75 9.7
									 419.41 7.94 419.41 C7.14 419.41 6.31 419.5 5.47 419.71 C4.62 419.92 3.8 420.17 3 420.49 C2.63
									 420.65 2.36 420.74 2.2 420.78 C2.04 420.83 1.92 420.85 1.83 420.85 C1.51 420.85 1.35 420.62
									 1.35 420.14 L1.35 419.02 C1.35 418.66 1.4 418.38 1.51 418.22 C1.62 418.06 1.83 417.9 2.15 417.74
									 C2.95 417.33 3.91 416.99 5.03 416.71 C6.15 416.41 7.34 416.28 8.6 416.28 C11.32 416.28 13.31
									 416.9 14.6 418.13 C15.85 419.37 16.49 421.24 16.49 423.76 L16.49 431.17 L16.54 431.17 ZM7.25
									 434.65 C8.01 434.65 8.78 434.51 9.61 434.24 C10.43 433.96 11.16 433.46 11.78 432.77 C12.15 432.34
									 12.42 431.86 12.56 431.31 C12.7 430.76 12.79 430.1 12.79 429.32 L12.79 428.36 C12.12 428.2 11.42
									 428.06 10.68 427.97 C9.95 427.88 9.24 427.83 8.53 427.83 C7 427.83 5.88 428.13 5.12 428.75 C4.37
									 429.36 4 430.23 4 431.38 C4 432.45 4.28 433.25 4.85 433.8 C5.4 434.37 6.2 434.65 7.25 434.65
									 ZM25.62 437.12 C25.21 437.12 24.94 437.05 24.75 436.89 C24.57 436.75 24.41 436.43 24.27 436
									 L18.9 418.31 C18.76 417.86 18.69 417.56 18.69 417.4 C18.69 417.03 18.87 416.83 19.24 416.83
									 L21.48 416.83 C21.92 416.83 22.21 416.9 22.37 417.06 C22.56 417.19 22.69 417.51 22.83 417.95
									 L26.67 433.09 L30.24 417.95 C30.36 417.49 30.49 417.19 30.68 417.06 C30.86 416.92 31.18 416.83
									 31.59 416.83 L33.42 416.83 C33.86 416.83 34.15 416.9 34.34 417.06 C34.52 417.19 34.68 417.51
									 34.77 417.95 L38.39 433.27 L42.34 417.95 C42.48 417.49 42.64 417.19 42.8 417.06 C42.98 416.92
									 43.28 416.83 43.69 416.83 L45.82 416.83 C46.19 416.83 46.39 417.01 46.39 417.4 C46.39 417.51
									 46.37 417.63 46.35 417.76 C46.32 417.9 46.28 418.08 46.19 418.34 L40.67 436.02 C40.54 436.48
									 40.38 436.77 40.19 436.91 C40.01 437.05 39.71 437.14 39.32 437.14 L37.36 437.14 C36.92 437.14
									 36.63 437.07 36.44 436.91 C36.26 436.75 36.1 436.45 36.01 436 L32.46 421.24 L28.94 435.97 C28.82
									 436.43 28.69 436.73 28.5 436.89 C28.32 437.05 28 437.12 27.59 437.12 L25.62 437.12 ZM55.02 437.74
									 C53.83 437.74 52.64 437.6 51.49 437.32 C50.35 437.05 49.46 436.75 48.86 436.41 C48.5 436.2 48.25
									 435.97 48.15 435.77 C48.06 435.56 48.02 435.33 48.02 435.13 L48.02 433.96 C48.02 433.48 48.2
									 433.25 48.54 433.25 C48.68 433.25 48.82 433.27 48.96 433.32 C49.09 433.37 49.3 433.46 49.53
									 433.55 C50.31 433.89 51.15 434.17 52.04 434.35 C52.96 434.53 53.85 434.62 54.77 434.62 C56.21
									 434.62 57.33 434.37 58.11 433.87 C58.88 433.37 59.3 432.63 59.3 431.7 C59.3 431.06 59.09 430.53
									 58.68 430.1 C58.27 429.66 57.49 429.27 56.37 428.91 L53.05 427.88 C51.38 427.35 50.14 426.57
									 49.39 425.54 C48.64 424.54 48.25 423.42 48.25 422.23 C48.25 421.26 48.45 420.42 48.86 419.69
									 C49.28 418.95 49.82 418.31 50.51 417.81 C51.2 417.28 51.98 416.9 52.89 416.62 C53.81 416.35
									 54.77 416.23 55.77 416.23 C56.28 416.23 56.8 416.25 57.31 416.32 C57.83 416.39 58.31 416.48
									 58.79 416.58 C59.25 416.69 59.68 416.8 60.1 416.94 C60.51 417.08 60.83 417.22 61.06 417.35 C61.38
									 417.54 61.61 417.72 61.74 417.92 C61.88 418.11 61.95 418.36 61.95 418.68 L61.95 419.75 C61.95
									 420.24 61.77 420.49 61.42 420.49 C61.24 420.49 60.94 420.4 60.55 420.21 C59.25 419.62 57.79
									 419.32 56.16 419.32 C54.86 419.32 53.83 419.53 53.12 419.96 C52.41 420.4 52.04 421.06 52.04
									 422 C52.04 422.64 52.27 423.19 52.73 423.62 C53.19 424.06 54.03 424.49 55.25 424.88 L58.49 425.91
									 C60.14 426.43 61.33 427.17 62.04 428.1 C62.75 429.04 63.09 430.12 63.09 431.31 C63.09 432.29
									 62.89 433.18 62.5 433.96 C62.09 434.74 61.54 435.43 60.83 435.97 C60.12 436.55 59.27 436.96
									 58.29 437.26 C57.26 437.58 56.18 437.74 55.02 437.74 Z" class="st29"/>
					</g>
					<g id="group1858-193" v:mID="1858" v:groupContext="group">
						<title>Sheet.1858</title>
						<g id="shape1859-194" v:mID="1859" v:groupContext="shape">
							<title>Sheet.1859</title>
							<path d="M62.59 429.23 C55.06 434.78 44.13 437.74 34.73 437.74 C21.55 437.74 9.68 432.86 0.71 424.76
										 C0 424.12 0.64 423.26 1.49 423.76 C11.19 429.39 23.15 432.79 35.53 432.79 C43.88 432.79
										 53.05 431.06 61.49 427.49 C62.75 426.92 63.83 428.31 62.59 429.23 Z" class="st30"/>
						</g>
						<g id="shape1860-196" v:mID="1860" v:groupContext="shape" transform="translate(56.0699,-2.53928)">
							<title>Sheet.1860</title>
							<path d="M9.65 428.2 C8.69 426.96 3.29 427.6 0.85 427.9 C0.11 427.99 0 427.35 0.66 426.87 C4.96 423.85
										 12.03 424.72 12.86 425.73 C13.68 426.76 12.63 433.82 8.6 437.21 C7.98 437.74 7.39 437.46
										 7.66 436.77 C8.58 434.51 10.61 429.41 9.65 428.2 Z" class="st30"/>
						</g>
					</g>
				</g>
			</g>
			<g id="group1868-198" transform="translate(13.135,-144.386)" v:mID="1868" v:groupContext="group">
				<title>Kubernetes_Logo_Hrz_lockup_POS.1868</title>
				<g id="group1869-199" v:mID="1869" v:groupContext="group">
					<title>Layer_1-2</title>
					<g id="shape1870-200" v:mID="1870" v:groupContext="shape">
						<title>Sheet.1870</title>
						<path d="M16.66 424.03 C16.55 423.7 16.3 423.43 15.99 423.26 L9.65 420.23 C9.48 420.14 9.3 420.12 9.13 420.12
									 C8.96 420.12 8.78 420.12 8.61 420.16 L2.27 423.22 C1.95 423.37 1.73 423.64 1.64 423.99 L0.06
									 430.83 C0 431.18 0.08 431.54 0.29 431.83 L4.68 437.26 C4.93 437.51 5.28 437.67 5.64 437.69 L12.64
									 437.69 C13.02 437.74 13.37 437.57 13.6 437.26 L17.99 431.83 C18.2 431.54 18.28 431.18 18.24
									 430.83 L16.66 424.03 Z" class="st31"/>
					</g>
					<g id="shape1871-202" v:mID="1871" v:groupContext="shape" transform="translate(2.18359,-1.93404)">
						<title>Sheet.1871</title>
						<path d="M13.48 432.5 C13.46 432.5 13.46 432.5 13.46 432.47 C13.46 432.45 13.39 432.45 13.37 432.45 C13.29
									 432.43 13.21 432.43 13.12 432.43 C13.08 432.43 13.04 432.43 13 432.41 L12.98 432.41 C12.75 432.39
									 12.5 432.35 12.27 432.29 C12.21 432.27 12.14 432.2 12.12 432.14 C12.12 432.12 12.1 432.12 12.1
									 432.12 L11.94 432.08 C12.02 431.48 11.98 430.85 11.85 430.25 C11.71 429.65 11.46 429.06 11.13
									 428.54 L11.25 428.42 L11.25 428.4 C11.25 428.34 11.27 428.25 11.31 428.21 C11.5 428.07 11.69
									 427.92 11.9 427.82 C11.94 427.8 11.98 427.77 12.02 427.75 C12.1 427.71 12.17 427.67 12.25 427.63
									 C12.27 427.61 12.29 427.61 12.31 427.59 C12.33 427.57 12.33 427.57 12.33 427.57 C12.52 427.42
									 12.56 427.17 12.42 426.98 C12.35 426.9 12.23 426.84 12.12 426.84 C12.02 426.84 11.92 426.88
									 11.83 426.94 L11.81 426.96 C11.79 426.98 11.77 427 11.75 427 C11.69 427.07 11.63 427.13 11.58
									 427.19 C11.56 427.23 11.52 427.25 11.5 427.28 C11.33 427.44 11.17 427.61 10.98 427.73 C10.94
									 427.75 10.9 427.77 10.86 427.77 C10.83 427.77 10.79 427.77 10.77 427.75 L10.61 427.88 C10.44
									 427.71 10.25 427.55 10.09 427.38 C9.32 426.78 8.36 426.4 7.38 426.3 L7.36 426.13 L7.34 426.11
									 C7.28 426.07 7.26 426.01 7.24 425.94 C7.24 425.72 7.24 425.49 7.28 425.24 L7.28 425.22 C7.28
									 425.17 7.3 425.13 7.3 425.09 C7.32 425.01 7.32 424.93 7.34 424.84 L7.34 424.72 C7.36 424.51
									 7.2 424.3 6.99 424.3 C6.86 424.3 6.74 424.34 6.65 424.43 C6.57 424.51 6.53 424.61 6.53 424.72
									 L6.53 424.82 C6.53 424.9 6.55 424.99 6.57 425.07 C6.59 425.11 6.59 425.15 6.59 425.2 L6.59 425.22
									 C6.63 425.45 6.63 425.67 6.63 425.92 C6.61 425.99 6.59 426.05 6.53 426.09 L6.51 426.11 L6.49
									 426.28 C6.26 426.3 6.03 426.34 5.78 426.38 C4.8 426.59 3.91 427.11 3.22 427.84 L3.1 427.75 L3.08
									 427.75 C3.06 427.75 3.04 427.77 2.99 427.77 C2.95 427.77 2.89 427.75 2.87 427.73 C2.68 427.59
									 2.52 427.42 2.35 427.25 C2.33 427.21 2.29 427.19 2.27 427.17 C2.2 427.11 2.16 427.05 2.1 426.98
									 C2.08 426.96 2.06 426.96 2.04 426.94 C2.02 426.92 2.02 426.92 2.02 426.92 C1.93 426.86 1.83
									 426.82 1.73 426.82 C1.6 426.82 1.5 426.86 1.41 426.96 C1.29 427.15 1.33 427.4 1.5 427.55 C1.52
									 427.55 1.52 427.57 1.52 427.57 C1.52 427.57 1.56 427.61 1.58 427.61 C1.64 427.65 1.73 427.69
									 1.81 427.73 C1.85 427.75 1.89 427.77 1.93 427.8 C2.14 427.92 2.33 428.04 2.52 428.19 C2.56 428.23
									 2.6 428.32 2.58 428.38 L2.58 428.4 L2.7 428.52 C2.68 428.56 2.66 428.59 2.64 428.63 C2 429.65
									 1.75 430.85 1.93 432.04 L1.77 432.08 C1.77 432.1 1.75 432.1 1.75 432.1 C1.73 432.16 1.66 432.2
									 1.6 432.25 C1.37 432.31 1.14 432.35 0.89 432.37 L0.87 432.37 C0.83 432.37 0.79 432.37 0.75 432.39
									 C0.67 432.39 0.58 432.41 0.5 432.41 C0.48 432.41 0.46 432.43 0.42 432.43 C0.4 432.43 0.4 432.43
									 0.37 432.45 C0.15 432.5 0 432.7 0.04 432.93 C0.08 433.12 0.27 433.24 0.46 433.22 C0.5 433.22
									 0.52 433.22 0.56 433.2 C0.58 433.2 0.58 433.2 0.58 433.18 C0.58 433.16 0.62 433.16 0.67 433.16
									 C0.75 433.14 0.83 433.1 0.89 433.08 C0.94 433.06 0.98 433.04 1.02 433.04 L1.04 433.04 C1.25
									 432.95 1.48 432.89 1.71 432.85 L1.73 432.85 C1.79 432.85 1.85 432.87 1.89 432.91 C1.91 432.91
									 1.91 432.93 1.91 432.93 L2.1 432.91 C2.41 433.87 2.99 434.72 3.81 435.34 C3.99 435.49 4.16 435.61
									 4.37 435.72 L4.28 435.88 C4.28 435.91 4.3 435.91 4.3 435.91 C4.35 435.97 4.35 436.05 4.33 436.11
									 C4.24 436.32 4.12 436.53 3.99 436.72 L3.99 436.74 C3.97 436.78 3.95 436.8 3.91 436.84 C3.87
									 436.88 3.83 436.97 3.76 437.05 C3.74 437.07 3.74 437.09 3.72 437.11 C3.72 437.11 3.72 437.13
									 3.7 437.13 C3.6 437.34 3.68 437.59 3.87 437.69 C3.91 437.71 3.97 437.74 4.03 437.74 C4.2 437.74
									 4.35 437.63 4.43 437.49 C4.43 437.49 4.43 437.47 4.45 437.47 C4.45 437.44 4.47 437.42 4.49 437.4
									 C4.51 437.32 4.55 437.26 4.58 437.17 L4.62 437.05 C4.68 436.82 4.78 436.61 4.89 436.4 C4.93
									 436.34 4.99 436.3 5.05 436.28 C5.07 436.28 5.07 436.28 5.07 436.26 L5.16 436.09 C5.74 436.32
									 6.34 436.43 6.97 436.43 C7.34 436.43 7.72 436.38 8.09 436.3 C8.32 436.26 8.55 436.18 8.76 436.11
									 L8.84 436.26 C8.86 436.26 8.86 436.26 8.86 436.28 C8.92 436.3 8.98 436.34 9.03 436.4 C9.13 436.61
									 9.21 436.82 9.3 437.03 L9.3 437.05 L9.34 437.17 C9.36 437.26 9.38 437.34 9.42 437.4 C9.44 437.42
									 9.44 437.44 9.46 437.47 C9.46 437.47 9.46 437.49 9.48 437.49 C9.57 437.63 9.71 437.74 9.88 437.74
									 C9.94 437.74 9.98 437.71 10.04 437.69 C10.13 437.65 10.21 437.57 10.23 437.47 C10.25 437.36
									 10.25 437.24 10.21 437.13 C10.21 437.11 10.19 437.11 10.19 437.11 C10.19 437.09 10.17 437.07
									 10.15 437.05 C10.11 436.97 10.07 436.9 10 436.84 C9.98 436.8 9.96 436.78 9.92 436.74 L9.92 436.72
									 C9.77 436.53 9.67 436.32 9.59 436.11 C9.57 436.05 9.57 435.97 9.61 435.91 C9.61 435.88 9.63
									 435.88 9.63 435.88 L9.57 435.72 C10.65 435.07 11.44 434.08 11.83 432.89 L12 432.91 C12.02 432.91
									 12.02 432.89 12.02 432.89 C12.06 432.85 12.12 432.83 12.19 432.83 L12.21 432.83 C12.44 432.87
									 12.66 432.93 12.87 433.02 L12.89 433.02 C12.94 433.04 12.98 433.06 13.02 433.06 C13.1 433.1
									 13.16 433.12 13.25 433.14 C13.27 433.14 13.29 433.16 13.33 433.16 C13.35 433.16 13.35 433.16
									 13.37 433.18 C13.41 433.2 13.43 433.2 13.48 433.2 C13.66 433.2 13.83 433.08 13.89 432.91 C13.83
									 432.7 13.68 432.54 13.48 432.5 ZM7.49 431.85 L6.93 432.12 L6.36 431.85 L6.2 431.25 L6.59 430.75
									 L7.24 430.75 L7.63 431.25 L7.49 431.85 ZM10.88 430.5 C10.98 430.94 11 431.37 10.96 431.81 L8.98
									 431.25 C8.8 431.21 8.69 431.02 8.73 430.83 C8.76 430.77 8.78 430.73 8.82 430.69 L10.38 429.27
									 C10.61 429.65 10.77 430.06 10.88 430.5 ZM9.75 428.5 L8.07 429.71 C7.92 429.79 7.72 429.77 7.61
									 429.63 C7.57 429.58 7.55 429.54 7.55 429.48 L7.42 427.38 C8.3 427.48 9.13 427.88 9.75 428.5
									 ZM5.99 427.44 L6.41 427.36 L6.28 429.44 C6.28 429.63 6.11 429.77 5.93 429.77 C5.86 429.77 5.82
									 429.75 5.76 429.73 L4.08 428.5 C4.6 427.98 5.26 427.61 5.99 427.44 ZM3.45 429.27 L4.99 430.64
									 C5.14 430.77 5.16 430.98 5.03 431.12 C4.99 431.18 4.95 431.21 4.87 431.23 L2.87 431.81 C2.79
									 430.94 2.99 430.04 3.45 429.27 ZM3.1 432.79 L5.16 432.43 C5.32 432.43 5.49 432.54 5.51 432.7
									 C5.53 432.77 5.53 432.85 5.49 432.91 L4.7 434.82 C3.97 434.35 3.39 433.62 3.1 432.79 ZM7.82
									 435.36 C7.53 435.43 7.22 435.47 6.9 435.47 C6.47 435.47 6.01 435.39 5.59 435.26 L6.61 433.41
									 C6.72 433.29 6.88 433.24 7.03 433.33 C7.09 433.37 7.13 433.41 7.2 433.47 L8.19 435.28 C8.09
									 435.3 7.96 435.32 7.82 435.36 ZM10.36 433.56 C10.04 434.05 9.61 434.49 9.11 434.8 L8.3 432.87
									 C8.26 432.7 8.32 432.54 8.48 432.45 C8.55 432.43 8.61 432.41 8.67 432.41 L10.75 432.77 C10.65
									 433.06 10.52 433.33 10.36 433.56 Z" class="st32"/>
					</g>
					<g id="group1872-204" transform="translate(23.9779,-2.72429)" v:mID="1872" v:groupContext="group">
						<title>text4373</title>
						<g id="shape1873-205" v:mID="1873" v:groupContext="shape" transform="translate(0,-0.228757)">
							<title>path2985</title>
							<path d="M2.23 432.62 C2.45 432.37 2.66 432.12 2.91 431.87 C3.14 431.6 3.37 431.35 3.6 431.1 C3.83 430.83
										 4.03 430.6 4.22 430.37 C4.41 430.15 4.6 429.94 4.74 429.77 L7.4 429.77 C6.86 430.37 6.34
										 430.98 5.84 431.54 C5.32 432.1 4.78 432.68 4.18 433.26 C4.51 433.58 4.82 433.89 5.12 434.24
										 C5.43 434.62 5.74 434.99 6.05 435.41 C6.34 435.8 6.63 436.22 6.88 436.61 C7.13 437.01 7.34
										 437.38 7.51 437.71 L4.95 437.71 C4.78 437.44 4.6 437.17 4.39 436.86 C4.18 436.55 3.95 436.24
										 3.74 435.91 C3.51 435.59 3.26 435.28 2.99 434.99 C2.77 434.72 2.52 434.47 2.25 434.26 L2.25
										 437.74 L0 437.74 L0 426.34 L2.25 425.99 L2.25 432.62 L2.23 432.62 Z" class="st33"/>
							<path d="M2.23 432.62 C2.45 432.37 2.66 432.12 2.91 431.87 C3.14 431.6 3.37 431.35 3.6 431.1 C3.83 430.83
										 4.03 430.6 4.22 430.37 C4.41 430.15 4.6 429.94 4.74 429.77 L7.4 429.77 C6.86 430.37 6.34
										 430.98 5.84 431.54 C5.32 432.1 4.78 432.68 4.18 433.26 C4.51 433.58 4.82 433.89 5.12 434.24
										 C5.43 434.62 5.74 434.99 6.05 435.41 C6.34 435.8 6.63 436.22 6.88 436.61 C7.13 437.01 7.34
										 437.38 7.51 437.71 L4.95 437.71 C4.78 437.44 4.6 437.17 4.39 436.86 C4.18 436.55 3.95 436.24
										 3.74 435.91 C3.51 435.59 3.26 435.28 2.99 434.99 C2.77 434.72 2.52 434.47 2.25 434.26 L2.25
										 437.74 L0 437.74 L0 426.34 L2.25 425.99 L2.25 432.62" class="st34"/>
						</g>
						<g id="shape1874-208" v:mID="1874" v:groupContext="shape" transform="translate(8.464,-0.10398)">
							<title>path2987</title>
							<path d="M6.84 437.28 C6.36 437.4 5.86 437.51 5.37 437.57 C4.74 437.67 4.1 437.71 3.47 437.71 C2.89 437.74
										 2.33 437.63 1.79 437.44 C1.37 437.28 1.02 437.03 0.73 436.7 C0.46 436.34 0.27 435.95 0.17
										 435.51 C0.04 435.03 0 434.51 0 434.01 L0 429.63 L2.25 429.63 L2.25 433.76 C2.25 434.49 2.35
										 435.01 2.54 435.32 C2.72 435.64 3.08 435.8 3.6 435.82 C3.76 435.82 3.93 435.82 4.12 435.8
										 C4.3 435.78 4.45 435.78 4.6 435.74 L4.6 429.63 L6.84 429.63 L6.84 437.28 Z" class="st35"/>
						</g>
						<g id="shape1875-210" v:mID="1875" v:groupContext="shape" transform="translate(17.4479,-0.0415922)">
							<title>path2989</title>
							<path d="M5.05 433.47 C5.05 432.02 4.51 431.31 3.45 431.31 C3.22 431.31 2.99 431.33 2.77 431.39 C2.58
										 431.43 2.39 431.52 2.23 431.62 L2.23 435.7 C2.33 435.72 2.47 435.74 2.64 435.76 C2.81 435.78
										 2.99 435.78 3.2 435.78 C3.74 435.82 4.26 435.59 4.6 435.16 C4.91 434.66 5.07 434.08 5.05
										 433.47 ZM7.34 433.56 C7.34 434.14 7.26 434.72 7.05 435.28 C6.88 435.78 6.61 436.22 6.26
										 436.59 C5.89 436.97 5.45 437.26 4.97 437.44 C4.41 437.65 3.83 437.74 3.22 437.74 C2.95 437.74
										 2.66 437.71 2.37 437.69 C2.08 437.67 1.79 437.63 1.5 437.61 C1.23 437.57 0.96 437.53 0.69
										 437.47 C0.42 437.42 0.19 437.34 0 437.26 L0 426.15 L2.25 425.8 L2.25 429.75 C2.5 429.65
										 2.77 429.56 3.04 429.5 C3.33 429.44 3.62 429.42 3.91 429.42 C4.43 429.42 4.93 429.5 5.41
										 429.73 C5.82 429.92 6.2 430.21 6.49 430.56 C6.8 430.96 7.03 431.39 7.15 431.87 C7.28 432.39
										 7.36 432.97 7.34 433.56 Z" class="st35"/>
						</g>
						<g id="shape1876-212" v:mID="1876" v:groupContext="shape" transform="translate(26.1199,-0.0207961)">
							<title>path2991</title>
							<path d="M0.02 433.58 C0 432.95 0.12 432.33 0.33 431.75 C0.52 431.25 0.81 430.81 1.19 430.42 C1.54 430.06
										 1.93 429.79 2.39 429.63 C2.85 429.44 3.33 429.35 3.81 429.35 C4.93 429.35 5.82 429.71 6.47
										 430.39 C7.11 431.08 7.44 432.1 7.44 433.43 C7.44 433.56 7.44 433.7 7.42 433.87 C7.4 434.03
										 7.4 434.16 7.4 434.28 L2.31 434.28 C2.35 434.72 2.58 435.12 2.95 435.36 C3.41 435.66 3.95
										 435.8 4.49 435.78 C4.89 435.78 5.3 435.74 5.7 435.68 C6.03 435.61 6.36 435.51 6.68 435.39
										 L6.99 437.22 C6.84 437.3 6.68 437.34 6.51 437.4 C6.28 437.47 6.05 437.53 5.82 437.55 C5.57
										 437.59 5.32 437.63 5.03 437.67 C4.76 437.69 4.47 437.71 4.18 437.71 C3.54 437.74 2.91 437.63
										 2.31 437.4 C1.81 437.22 1.37 436.92 1 436.55 C0.64 436.18 0.4 435.72 0.23 435.24 C0.1 434.68
										 0.02 434.12 0.02 433.58 ZM5.28 432.72 C5.28 432.54 5.24 432.35 5.18 432.16 C5.14 431.98
										 5.03 431.83 4.93 431.68 C4.8 431.54 4.66 431.41 4.49 431.33 C4.28 431.23 4.08 431.18 3.85
										 431.18 C3.62 431.18 3.41 431.23 3.2 431.33 C3.04 431.41 2.87 431.52 2.75 431.66 C2.62 431.81
										 2.52 431.98 2.45 432.16 C2.39 432.35 2.35 432.54 2.33 432.72 L5.28 432.72 Z" class="st35"/>
						</g>
						<g id="shape1877-214" v:mID="1877" v:groupContext="shape" transform="translate(35.3117,-0.270349)">
							<title>path2993</title>
							<path d="M4.78 431.79 C4.58 431.75 4.35 431.68 4.08 431.64 C3.78 431.58 3.49 431.56 3.2 431.56 C3.04
										 431.56 2.87 431.58 2.68 431.6 C2.54 431.62 2.39 431.64 2.25 431.68 L2.25 437.74 L0 437.74
										 L0 430.21 C0.46 430.04 0.94 429.92 1.41 429.81 C2.02 429.67 2.64 429.6 3.24 429.63 C3.39
										 429.63 3.54 429.65 3.68 429.65 C3.85 429.65 4.01 429.67 4.2 429.71 C4.37 429.73 4.53 429.75
										 4.72 429.79 C4.87 429.81 5.01 429.85 5.16 429.92 L4.78 431.79 Z" class="st35"/>
						</g>
						<g id="shape1878-216" v:mID="1878" v:groupContext="shape" transform="translate(41.6545,-0.311941)">
							<title>path2995</title>
							<path d="M0.02 430.1 C0.5 429.98 1 429.87 1.5 429.79 C2.12 429.69 2.77 429.65 3.39 429.65 C3.95 429.63
										 4.51 429.73 5.05 429.92 C5.47 430.06 5.84 430.31 6.11 430.64 C6.38 430.98 6.57 431.37 6.68
										 431.79 C6.8 432.27 6.84 432.77 6.84 433.26 L6.84 437.74 L4.6 437.74 L4.6 433.56 C4.6 432.83
										 4.49 432.33 4.3 432.02 C4.12 431.73 3.76 431.56 3.24 431.56 C3.08 431.56 2.91 431.56 2.72
										 431.58 C2.54 431.58 2.39 431.6 2.25 431.62 L2.25 437.74 L0 437.74 L0.02 430.1 Z"
									class="st35"/>
						</g>
						<g id="shape1879-218" v:mID="1879" v:groupContext="shape" transform="translate(50.1809,-0.0207961)">
							<title>path2997</title>
							<path d="M0.02 433.58 C0 432.95 0.12 432.33 0.33 431.75 C0.52 431.25 0.81 430.81 1.19 430.42 C1.54 430.06
										 1.93 429.79 2.39 429.63 C2.85 429.44 3.33 429.35 3.81 429.35 C4.93 429.35 5.82 429.71 6.47
										 430.39 C7.11 431.08 7.44 432.1 7.44 433.43 C7.44 433.56 7.44 433.7 7.42 433.87 C7.42 434.03
										 7.4 434.16 7.4 434.28 L2.31 434.28 C2.35 434.72 2.58 435.12 2.95 435.36 C3.41 435.66 3.95
										 435.8 4.49 435.78 C4.89 435.78 5.3 435.74 5.7 435.68 C6.03 435.61 6.36 435.51 6.68 435.39
										 L6.99 437.22 C6.84 437.3 6.68 437.34 6.51 437.4 C6.28 437.47 6.05 437.53 5.82 437.55 C5.57
										 437.59 5.32 437.63 5.03 437.67 C4.76 437.69 4.47 437.71 4.18 437.71 C3.54 437.74 2.91 437.63
										 2.31 437.4 C1.81 437.22 1.37 436.92 1 436.55 C0.64 436.18 0.4 435.72 0.23 435.24 C0.08 434.68
										 0 434.12 0.02 433.58 ZM5.28 432.72 C5.28 432.54 5.24 432.35 5.18 432.16 C5.14 431.98 5.05
										 431.81 4.93 431.66 C4.8 431.52 4.66 431.39 4.49 431.31 C4.28 431.21 4.08 431.16 3.85 431.16
										 C3.62 431.16 3.41 431.21 3.2 431.31 C3.04 431.39 2.87 431.5 2.75 431.64 C2.62 431.79 2.52
										 431.95 2.45 432.14 C2.39 432.33 2.35 432.52 2.33 432.7 L5.28 432.72 Z" class="st35"/>
						</g>
						<g id="shape1880-220" v:mID="1880" v:groupContext="shape" transform="translate(59.2688,-0.0831843)">
							<title>path2999</title>
							<path d="M0.02 427.63 L2.27 427.28 L2.27 429.6 L4.97 429.6 L4.97 431.48 L2.27 431.48 L2.27 434.26 C2.25
										 434.66 2.33 435.05 2.52 435.39 C2.68 435.66 3.02 435.8 3.54 435.8 C3.78 435.8 4.03 435.78
										 4.26 435.74 C4.51 435.7 4.74 435.64 4.97 435.55 L5.28 437.3 C4.99 437.42 4.68 437.51 4.37
										 437.59 C3.97 437.67 3.56 437.71 3.14 437.71 C2.62 437.74 2.1 437.65 1.62 437.47 C1.25 437.32
										 0.92 437.07 0.67 436.78 C0.42 436.47 0.25 436.09 0.15 435.7 C0.04 435.24 0 434.76 0.02 434.3
										 L0.02 427.63 Z" class="st35"/>
						</g>
						<g id="shape1881-222" v:mID="1881" v:groupContext="shape" transform="translate(65.3621,-0.0207961)">
							<title>path3001</title>
							<path d="M0.02 433.58 C0 432.95 0.12 432.33 0.33 431.75 C0.52 431.25 0.81 430.81 1.19 430.42 C1.54 430.06
										 1.93 429.79 2.39 429.63 C2.85 429.44 3.33 429.35 3.81 429.35 C4.93 429.35 5.82 429.71 6.47
										 430.39 C7.11 431.08 7.44 432.1 7.44 433.43 C7.44 433.56 7.44 433.7 7.42 433.87 C7.42 434.03
										 7.4 434.16 7.4 434.28 L2.31 434.28 C2.35 434.72 2.6 435.12 2.95 435.36 C3.41 435.66 3.95
										 435.8 4.49 435.78 C4.89 435.78 5.3 435.74 5.7 435.68 C6.03 435.61 6.36 435.51 6.68 435.39
										 L6.99 437.22 C6.84 437.3 6.68 437.34 6.51 437.4 C6.28 437.47 6.05 437.53 5.82 437.55 C5.57
										 437.59 5.32 437.63 5.03 437.67 C4.76 437.69 4.47 437.71 4.18 437.71 C3.54 437.74 2.91 437.63
										 2.31 437.4 C1.81 437.22 1.37 436.92 1 436.55 C0.64 436.18 0.4 435.72 0.23 435.24 C0.1 434.68
										 0.02 434.12 0.02 433.58 ZM5.3 432.72 C5.3 432.54 5.26 432.35 5.2 432.16 C5.16 431.98 5.05
										 431.81 4.95 431.66 C4.82 431.52 4.68 431.39 4.51 431.31 C4.3 431.21 4.1 431.16 3.87 431.16
										 C3.64 431.16 3.43 431.21 3.22 431.31 C3.06 431.39 2.89 431.5 2.77 431.64 C2.64 431.79 2.54
										 431.95 2.47 432.14 C2.41 432.33 2.37 432.52 2.35 432.7 L5.3 432.72 Z" class="st35"/>
						</g>
						<g id="shape1882-224" v:mID="1882" v:groupContext="shape" transform="translate(74.0964,1.13687E-13)">
							<title>path3003</title>
							<path d="M2.75 435.84 C3.04 435.86 3.35 435.82 3.62 435.72 C3.78 435.64 3.89 435.45 3.87 435.26 C3.85
										 435.05 3.72 434.87 3.54 434.8 C3.22 434.62 2.87 434.45 2.52 434.35 C2.16 434.22 1.85 434.08
										 1.56 433.93 C1.29 433.81 1.06 433.64 0.83 433.43 C0.62 433.22 0.48 432.99 0.37 432.72 C0.25
										 432.41 0.21 432.08 0.21 431.75 C0.19 431.06 0.5 430.39 1.04 429.98 C1.6 429.54 2.35 429.33
										 3.31 429.33 C3.76 429.33 4.24 429.38 4.7 429.46 C5.05 429.52 5.41 429.6 5.76 429.73 L5.37
										 431.48 C5.07 431.37 4.8 431.31 4.51 431.23 C4.18 431.16 3.83 431.12 3.49 431.14 C2.79 431.14
										 2.43 431.33 2.43 431.73 C2.43 431.81 2.45 431.89 2.47 431.98 C2.52 432.06 2.58 432.12 2.66
										 432.18 C2.75 432.25 2.87 432.31 3.02 432.39 C3.16 432.47 3.37 432.56 3.62 432.64 C4.03 432.79
										 4.45 432.97 4.85 433.18 C5.14 433.33 5.39 433.51 5.59 433.76 C5.78 433.95 5.91 434.2 5.99
										 434.45 C6.07 434.74 6.11 435.03 6.11 435.32 C6.16 436.03 5.82 436.72 5.22 437.11 C4.64 437.51
										 3.81 437.71 2.72 437.71 C2.12 437.74 1.54 437.67 0.96 437.53 C0.62 437.44 0.31 437.34 0
										 437.24 L0.37 435.41 C0.75 435.55 1.14 435.68 1.54 435.76 C1.91 435.8 2.31 435.84 2.75 435.84
										 Z" class="st35"/>
						</g>
					</g>
				</g>
			</g>
			<g id="group2063-226" transform="translate(0,-27)" v:mID="2063" v:groupContext="group">
				<title>Sheet.2063</title>
				<g id="shape2062-227" v:mID="2062" v:groupContext="shape">
					<title>Sheet.2062</title>
					<path d="M0 437.74 L163.71 437.74" class="st24"/>
				</g>
			</g>
			<g id="shape2064-230" v:mID="2064" v:groupContext="shape" transform="translate(173.25,5.68434E-14)">
				<title>Sheet.2064</title>
				<desc>Your NetFoundry AppWANs (Micro-Segmented Network)</desc>
				<v:textBlock v:margins="rect(4,4,4,4)"/>
				<v:textRect cx="81" cy="410.736" width="162" height="54"/>
				<rect x="0" y="383.736" width="162" height="54" class="st36"/>
				<text x="4" y="407.14" class="st37" v:langID="1033"><v:paragraph/><v:tabList/>Your NetFoundry AppWANs <tspan x="4"
							dy="1.2em" class="st12">(Micro</tspan>-Segmented Network)</text>			</g>
		</g>
	</g>
</svg>
