<?xml version="1.0" encoding="UTF-8" standalone="no"?>
<!DOCTYPE svg PUBLIC "-//W3C//DTD SVG 1.1//EN" "http://www.w3.org/Graphics/SVG/1.1/DTD/svg11.dtd">
<!-- Generated by Microsoft Visio, SVG Export docker-compose-nw.svg Page-1 -->
<svg xmlns="http://www.w3.org/2000/svg" xmlns:xlink="http://www.w3.org/1999/xlink" xmlns:ev="http://www.w3.org/2001/xml-events"
		width="5.39674in" height="3.54861in" viewBox="0 0 388.566 255.5" xml:space="preserve" color-interpolation-filters="sRGB"
		class="st33">
	<style type="text/css">
	<![CDATA[
		.st1 {fill:none;stroke:#637626;stroke-dasharray:3.5,7;stroke-linecap:round;stroke-linejoin:round;stroke-width:3.5}
		.st2 {fill:#637626;font-family:Calibri;font-size:1.5em}
		.st3 {fill:none;stroke:#c00000;stroke-dasharray:3.5,7;stroke-linecap:round;stroke-linejoin:round;stroke-width:3.5}
		.st4 {fill:#c00000;font-family:Calibri;font-size:1.5em}
		.st5 {fill:#625986;stroke:#ffffff;stroke-linecap:round;stroke-linejoin:round;stroke-width:0.5}
		.st6 {fill:#a5a5a5;stroke:#ffffff;stroke-linecap:round;stroke-linejoin:round;stroke-width:0.5}
		.st7 {fill:#ffffff}
		.st8 {fill:#1c1a26;font-family:Calibri;font-size:0.833336em}
		.st9 {fill:none;stroke:#00b0f0;stroke-dasharray:3.5,7;stroke-linecap:round;stroke-linejoin:round;stroke-width:3.5}
		.st10 {fill:#00b0f0;font-family:Calibri;font-size:1.5em}
		.st11 {fill:#5b9bd5;stroke:#ffffff;stroke-linecap:round;stroke-linejoin:round;stroke-width:0.5}
		.st12 {fill:#aad288;stroke:#ffffff;stroke-linecap:round;stroke-linejoin:round;stroke-width:0.5}
		.st13 {stroke:#ffffff;stroke-dasharray:3.5,2.5;stroke-linecap:round;stroke-linejoin:round;stroke-width:0.5}
		.st14 {fill:#1e4a73;font-family:Calibri;font-size:0.833336em}
		.st15 {stroke:#73ae42;stroke-linecap:round;stroke-linejoin:round;stroke-width:0.5}
		.st16 {fill:#73ae42;stroke:#ffffff;stroke-linecap:round;stroke-linejoin:round;stroke-opacity:0;stroke-width:0.5}
		.st17 {fill:#73ae42;stroke:#ffffff;stroke-linecap:round;stroke-linejoin:round;stroke-width:0.5}
		.st18 {fill:#feffff;stroke:#ffffff;stroke-linecap:round;stroke-linejoin:round;stroke-opacity:0;stroke-width:0.5}
		.st19 {fill:#263a16;font-family:Calibri;font-size:0.833336em}
		.st20 {font-size:1em}
		.st21 {stroke:#4271c6;stroke-linecap:round;stroke-linejoin:round;stroke-width:0.5}
		.st22 {fill:#4271c6;stroke:#ffffff;stroke-linecap:round;stroke-linejoin:round;stroke-opacity:0;stroke-width:0.5}
		.st23 {fill:#4271c6;stroke:#ffffff;stroke-linecap:round;stroke-linejoin:round;stroke-width:0.5}
		.st24 {fill:#182c50;font-family:Calibri;font-size:0.833336em}
		.st25 {stroke:#a5a5a5;stroke-linecap:round;stroke-linejoin:round;stroke-width:0.5}
		.st26 {fill:#a5a5a5;stroke:#ffffff;stroke-linecap:round;stroke-linejoin:round;stroke-opacity:0;stroke-width:0.5}
		.st27 {fill:#d8d8d8;stroke:#000000;stroke-linecap:round;stroke-linejoin:round;stroke-width:0.25}
		.st28 {fill:#c00000;font-size:1em}
		.st29 {fill:#c00000;stroke:#ffffff;stroke-linecap:round;stroke-linejoin:round;stroke-width:0.5}
		.st30 {fill:#ffffff;stroke:#ffffff;stroke-linecap:round;stroke-linejoin:round;stroke-width:0.5}
		.st31 {fill:none;stroke:none;stroke-linecap:round;stroke-linejoin:round;stroke-width:0.5}
		.st32 {fill:#c00000;font-family:Calibri;font-size:0.833336em}
		.st33 {fill:none;fill-rule:evenodd;font-size:12px;overflow:visible;stroke-linecap:square;stroke-miterlimit:3}
	]]>
	</style>

	<g>
		<title>Page-1</title>
		<g id="shape151-1" transform="translate(62.8156,-1.75)">
			<title>Rounded Rectangle</title>
			<desc>Control Network</desc>
			<path d="M0 255.5 L324 255.5 L324 3.5 L0 3.5 L0 255.5 Z" class="st1"/>
			<text x="4" y="23.7" class="st2">Control Network</text>		</g>
		<g id="shape161-4" transform="translate(215.816,-8.5)">
			<title>Rounded Rectangle.161</title>
			<desc>Red Network</desc>
			<path d="M0 255.5 L162 255.5 L162 148.25 L0 148.25 L0 255.5 Z" class="st3"/>
			<text x="62.32" y="168.45" class="st4">Red Network</text>		</g>
		<g id="group120-7" transform="translate(44.8156,-112)">
			<title>PC</title>
			<desc>Controller</desc>
			<g id="shape121-8" transform="translate(0,-2.4009)">
				<title>Sheet.121</title>
				<path d="M24.39 246.66 L24.39 249.7 L26.23 249.7 L27.96 251.87 L36 251.87 L36 224.3 L24.39 224.3 L24.39 228.26 L29.37
							 228.26 L29.37 246.66 L24.39 246.66 ZM29.37 228.26 L1.8 228.26 L1.8 246.66 L29.37 246.66 L29.37 228.26
							 ZM30.85 255.5 L26.23 249.7 L4.63 249.7 L0 255.5 L30.85 255.5 ZM17.85 246.66 L13 246.66 L13 249.7 L17.85
							 249.7 L17.85 246.66 Z" class="st5"/>
			</g>
			<g id="shape122-10" transform="translate(3.58283,-12.8996)">
				<title>Sheet.122</title>
				<path d="M24.04 240.58 L0 240.58 L0 255.5 L24.04 255.5 L24.04 240.58 Z" class="st6"/>
			</g>
			<g id="shape123-12" transform="translate(4.19876,-3.59849)">
				<title>Sheet.123</title>
				<path d="M27.15 228.59 L29.64 228.59 L29.64 227.62 L27.15 227.62 L27.15 228.59 ZM27.15 230.31 L29.64 230.31 L29.64
							 229.35 L27.15 229.35 L27.15 230.31 ZM21.07 253.25 L19.7 253.25 L20.46 254.1 L21.94 254.1 L21.07 253.25
							 ZM19.52 251.74 L18.34 251.74 L19.16 252.65 L20.46 252.65 L19.52 251.74 ZM18.96 253.25 L17.59 253.25
							 L18.19 254.1 L19.67 254.1 L18.96 253.25 ZM17.7 251.74 L16.52 251.74 L17.17 252.65 L18.46 252.65 L17.7
							 251.74 ZM16.85 253.25 L15.48 253.25 L15.92 254.1 L17.4 254.1 L16.85 253.25 ZM15.89 251.74 L14.71 251.74
							 L15.18 252.67 L16.48 252.67 L15.89 251.74 ZM14.74 253.25 L13.37 253.25 L13.64 254.1 L15.12 254.1 L14.74
							 253.25 ZM14.1 251.8 L12.91 251.8 L13.18 252.67 L14.48 252.67 L14.1 251.8 ZM12.63 253.25 L11.26 253.25
							 L11.37 254.1 L12.85 254.1 L12.63 253.25 ZM12.28 251.87 L11.09 251.87 L11.19 252.73 L12.5 252.73 L12.28
							 251.87 ZM10.44 251.87 L9.24 251.87 L9.19 252.73 L10.49 252.73 L10.44 251.87 ZM10.52 253.25 L9.15 253.25
							 L9.09 254.1 L10.57 254.1 L10.52 253.25 ZM8.6 251.87 L7.4 251.87 L7.18 252.73 L8.48 252.73 L8.6 251.87
							 ZM8.41 253.25 L7.04 253.25 L6.82 254.1 L8.3 254.1 L8.41 253.25 ZM15.94 254.65 L6.26 254.65 L6.01 255.5
							 L16.35 255.5 L15.94 254.65 ZM6.75 251.87 L5.56 251.87 L5.17 252.73 L6.48 252.73 L6.75 251.87 ZM6.3 253.25
							 L4.93 253.25 L4.55 254.1 L6.03 254.1 L6.3 253.25 ZM4.91 251.87 L3.71 251.87 L3.16 252.73 L4.47 252.73
							 L4.91 251.87 ZM4.2 253.25 L2.82 253.25 L2.27 254.1 L3.75 254.1 L4.2 253.25 ZM3.07 251.87 L1.87 251.87
							 L1.15 252.73 L2.46 252.73 L3.07 251.87 ZM2.09 253.25 L0.72 253.25 L0 254.1 L1.48 254.1 L2.09 253.25
							 Z" class="st7"/>
			</g>
			<g id="shape120-15">
				<text x="-2.51" y="268.5" class="st8">Controller</text>			</g>
		</g>
		<g id="shape197-17" transform="translate(215.816,-139.75)">
			<title>Rounded Rectangle.197</title>
			<desc>Blue Network</desc>
			<path d="M0 255.5 L162 255.5 L162 148.25 L0 148.25 L0 255.5 Z" class="st9"/>
			<text x="58.17" y="168.45" class="st10">Blue Network</text>		</g>
		<g id="group198-20" transform="translate(296.816,-166.75)">
			<title>Virtual server.198</title>
			<desc>Simple Web Server</desc>
			<g id="shape199-21" transform="translate(11.0405,-2)">
				<title>Sheet.199</title>
				<rect x="0" y="205.5" width="31.919" height="50" class="st11"/>
			</g>
			<g id="shape200-23" transform="translate(34.8965,-23.344)">
				<title>Sheet.200</title>
				<ellipse cx="1.9295" cy="253.57" rx="1.9295" ry="1.9295" class="st12"/>
			</g>
			<g id="shape201-25" transform="translate(23.1875,-10.196)">
				<title>Sheet.201</title>
				<path d="M-0 255.5 L15.57 255.5 L15.57 254.25 L-0 254.25 L-0 255.5 ZM-0 251.71 L15.57 251.71 L15.57 250.46 L-0 250.46
							 L-0 251.71 ZM-0 247.92 L15.57 247.92 L15.57 246.67 L-0 246.67 L-0 247.92 Z" class="st7"/>
			</g>
			<g id="shape202-28" transform="translate(9.0405,1.00583E-06)">
				<title>Sheet.202</title>
				<path d="M0 255.5 L35.92 255.5 L35.92 201.5 L0 201.5 L0 255.5" class="st13"/>
			</g>
			<g id="shape198-31">
				<text x="-11.54" y="268.5" class="st14">Simple Web Server</text>			</g>
		</g>
		<g id="group208-33" transform="translate(27.5656,-170.5)">
			<title>Ring network.208</title>
			<desc>Public Edge Router</desc>
			<g id="shape209-34">
				<title>Sheet.209</title>
				<path d="M28.7 228.85 L30.75 224.75" class="st15"/>
				<path d="M32.8 230.9 L30.75 224.75" class="st15"/>
				<path d="M29.25 225.5 L30.75 224.75" class="st15"/>
				<path d="M36.9 226.8 L30.75 224.75" class="st15"/>
				<path d="M32.8 222.7 L30.75 224.75" class="st15"/>
				<path d="M30.75 218.6 L30.75 224.75" class="st15"/>
				<path d="M24.6 214.5 L30.75 224.75" class="st15"/>
				<path d="M21 228.5 L30.75 224.75" class="st15"/>
				<path d="M189 296.75 L30.75 224.75" class="st15"/>
				<path d="M23.98 231.52 L30.75 224.75" class="st15"/>
				<path d="M30.75 234.59 L30.75 224.75" class="st15"/>
				<path d="M28.7 222.7 L30.75 224.75" class="st15"/>
				<path d="M27 219.5 L30.75 224.75" class="st15"/>
				<path d="M37.51 217.99 L30.75 224.75" class="st15"/>
				<path d="M30.75 214.91 L30.75 224.75" class="st15"/>
				<path d="M23.98 217.99 L30.75 224.75" class="st15"/>
				<path d="M29.25 225.5 L30.75 224.75" class="st15"/>
				<path d="M23.98 231.52 L30.75 224.75" class="st15"/>
				<path d="M30.75 234.59 L30.75 224.75" class="st15"/>
				<path d="M224.39 368.7 L30.75 224.75" class="st15"/>
				<path d="M37.51 217.99 L30.75 224.75" class="st15"/>
				<path d="M30.75 214.91 L30.75 224.75" class="st15"/>
				<path d="M23.98 217.99 L30.75 224.75" class="st15"/>
				<path d="M20.91 224.75 L30.75 224.75" class="st15"/>
				<path d="M23.98 231.52 L30.75 224.75" class="st15"/>
				<path d="M30.75 234.59 L30.75 224.75" class="st15"/>
				<path d="M37.51 231.52 L30.75 224.75" class="st15"/>
				<path d="M40.59 224.75 L30.75 224.75" class="st15"/>
				<path d="M37.51 217.99 L30.75 224.75" class="st15"/>
				<path d="M30.75 214.91 L30.75 224.75" class="st15"/>
				<path d="M23.98 217.99 L30.75 224.75" class="st15"/>
				<path d="M20.91 224.75 L30.75 224.75" class="st15"/>
				<path d="M23.98 231.52 L30.75 224.75" class="st15"/>
				<path d="M30.75 234.59 L30.75 224.75" class="st15"/>
				<path d="M37.51 231.52 L30.75 224.75" class="st15"/>
				<path d="M40.59 224.75 L30.75 224.75" class="st15"/>
				<path d="M37.51 217.99 L30.75 224.75" class="st15"/>
				<path d="M30.75 214.91 L30.75 224.75" class="st15"/>
				<path d="M23.98 217.99 L30.75 224.75" class="st15"/>
				<path d="M20.91 224.75 L30.75 224.75" class="st15"/>
				<path d="M23.98 231.52 L30.75 224.75" class="st15"/>
				<path d="M30.75 234.59 L30.75 224.75" class="st15"/>
				<path d="M37.51 231.52 L30.75 224.75" class="st15"/>
				<path d="M40.59 224.75 L30.75 224.75" class="st15"/>
				<path d="M37.51 217.99 L30.75 224.75" class="st15"/>
				<path d="M30.75 214.91 L30.75 224.75" class="st15"/>
				<path d="M23.98 217.99 L30.75 224.75" class="st15"/>
				<path d="M20.91 224.75 L30.75 224.75" class="st15"/>
				<path d="M23.98 231.52 L30.75 224.75" class="st15"/>
				<path d="M30.75 234.59 L30.75 224.75" class="st15"/>
				<path d="M37.51 231.52 L30.75 224.75" class="st15"/>
				<path d="M40.59 224.75 L30.75 224.75" class="st15"/>
				<path d="M37.51 217.99 L30.75 224.75" class="st15"/>
				<path d="M30.75 214.91 L30.75 224.75" class="st15"/>
				<path d="M23.98 217.99 L30.75 224.75" class="st15"/>
				<path d="M20.91 224.75 L30.75 224.75" class="st15"/>
				<path d="M23.98 231.52 L30.75 224.75" class="st15"/>
				<path d="M30.75 234.59 L30.75 224.75" class="st15"/>
				<path d="M37.51 231.52 L30.75 224.75" class="st15"/>
				<path d="M40.59 224.75 L30.75 224.75" class="st15"/>
				<path d="M37.51 217.99 L30.75 224.75" class="st15"/>
				<path d="M30.75 214.91 L30.75 224.75" class="st15"/>
				<path d="M23.98 217.99 L30.75 224.75" class="st15"/>
			</g>
			<g id="shape210-99">
				<title>Sheet.210</title>
				<path d="M24.6 228.5 A3.6 3.6 -180 1 0 17.4 228.5 A3.6 3.6 -180 1 0 24.6 228.5 ZM28.2 214.5 A3.6 3.6 -180 1 0 21
							 214.5 A3.6 3.6 -180 1 0 28.2 214.5 ZM34.35 218.6 A3.6 3.6 -180 1 0 27.15 218.6 A3.6 3.6 -180 1 0 34.35
							 218.6 ZM36.4 222.7 A3.6 3.6 -180 1 0 29.2 222.7 A3.6 3.6 -180 1 0 36.4 222.7 ZM40.5 226.8 A3.6 3.6 -180
							 1 0 33.3 226.8 A3.6 3.6 -180 1 0 40.5 226.8 ZM32.85 225.5 A3.6 3.6 -180 1 0 25.65 225.5 A3.6 3.6 -180
							 1 0 32.85 225.5 ZM36.4 230.9 A3.6 3.6 -180 1 0 29.2 230.9 A3.6 3.6 -180 1 0 36.4 230.9 ZM32.3 228.85
							 A3.6 3.6 -180 1 0 25.1 228.85 A3.6 3.6 -180 1 0 32.3 228.85 ZM192.6 296.75 A3.6 3.6 -180 1 0 185.4 296.75
							 A3.6 3.6 -180 1 0 192.6 296.75 ZM27.58 231.52 A3.6 3.6 -180 1 0 20.38 231.52 A3.6 3.6 -180 1 0 27.58
							 231.52 ZM34.35 234.59 A3.6 3.6 -180 1 0 27.15 234.59 A3.6 3.6 -180 1 0 34.35 234.59 ZM32.3 222.7 A3.6
							 3.6 -180 1 0 25.1 222.7 A3.6 3.6 -180 1 0 32.3 222.7 ZM30.6 219.5 A3.6 3.6 -180 1 0 23.4 219.5 A3.6
							 3.6 -180 1 0 30.6 219.5 ZM41.11 217.99 A3.6 3.6 -180 1 0 33.91 217.99 A3.6 3.6 -180 1 0 41.11 217.99
							 ZM34.35 214.91 A3.6 3.6 -180 1 0 27.15 214.91 A3.6 3.6 -180 1 0 34.35 214.91 ZM27.58 217.99 A3.6 3.6
							 -180 1 0 20.38 217.99 A3.6 3.6 -180 1 0 27.58 217.99 ZM32.85 225.5 A3.6 3.6 -180 1 0 25.65 225.5 A3.6
							 3.6 -180 1 0 32.85 225.5 ZM27.58 231.52 A3.6 3.6 -180 1 0 20.38 231.52 A3.6 3.6 -180 1 0 27.58 231.52
							 ZM34.35 234.59 A3.6 3.6 -180 1 0 27.15 234.59 A3.6 3.6 -180 1 0 34.35 234.59 ZM227.99 368.7 A3.6 3.6
							 -180 1 0 220.79 368.7 A3.6 3.6 -180 1 0 227.99 368.7 ZM34.35 224.75 A3.6 3.6 -180 1 0 27.15 224.75 A3.6
							 3.6 -180 1 0 34.35 224.75 ZM41.11 217.99 A3.6 3.6 -180 1 0 33.91 217.99 A3.6 3.6 -180 1 0 41.11 217.99
							 ZM34.35 214.91 A3.6 3.6 -180 1 0 27.15 214.91 A3.6 3.6 -180 1 0 34.35 214.91 ZM27.58 217.99 A3.6 3.6
							 -180 1 0 20.38 217.99 A3.6 3.6 -180 1 0 27.58 217.99 ZM24.51 224.75 A3.6 3.6 -180 1 0 17.31 224.75 A3.6
							 3.6 -180 1 0 24.51 224.75 ZM27.58 231.52 A3.6 3.6 -180 1 0 20.38 231.52 A3.6 3.6 -180 1 0 27.58 231.52
							 ZM34.35 234.59 A3.6 3.6 -180 1 0 27.15 234.59 A3.6 3.6 -180 1 0 34.35 234.59 ZM41.11 231.52 A3.6 3.6
							 -180 1 0 33.91 231.52 A3.6 3.6 -180 1 0 41.11 231.52 ZM44.19 224.75 A3.6 3.6 -180 1 0 36.99 224.75 A3.6
							 3.6 -180 1 0 44.19 224.75 ZM41.11 217.99 A3.6 3.6 -180 1 0 33.91 217.99 A3.6 3.6 -180 1 0 41.11 217.99
							 ZM34.35 214.91 A3.6 3.6 -180 1 0 27.15 214.91 A3.6 3.6 -180 1 0 34.35 214.91 ZM27.58 217.99 A3.6 3.6
							 -180 1 0 20.38 217.99 A3.6 3.6 -180 1 0 27.58 217.99 ZM24.51 224.75 A3.6 3.6 -180 1 0 17.31 224.75 A3.6
							 3.6 -180 1 0 24.51 224.75 ZM27.58 231.52 A3.6 3.6 -180 1 0 20.38 231.52 A3.6 3.6 -180 1 0 27.58 231.52
							 ZM34.35 234.59 A3.6 3.6 -180 1 0 27.15 234.59 A3.6 3.6 -180 1 0 34.35 234.59 ZM41.11 231.52 A3.6 3.6
							 -180 1 0 33.91 231.52 A3.6 3.6 -180 1 0 41.11 231.52 ZM44.19 224.75 A3.6 3.6 -180 1 0 36.99 224.75 A3.6
							 3.6 -180 1 0 44.19 224.75 ZM41.11 217.99 A3.6 3.6 -180 1 0 33.91 217.99 A3.6 3.6 -180 1 0 41.11 217.99
							 ZM34.35 214.91 A3.6 3.6 -180 1 0 27.15 214.91 A3.6 3.6 -180 1 0 34.35 214.91 ZM27.58 217.99 A3.6 3.6
							 -180 1 0 20.38 217.99 A3.6 3.6 -180 1 0 27.58 217.99 ZM24.51 224.75 A3.6 3.6 -180 1 0 17.31 224.75 A3.6
							 3.6 -180 1 0 24.51 224.75 ZM27.58 231.52 A3.6 3.6 -180 1 0 20.38 231.52 A3.6 3.6 -180 1 0 27.58 231.52
							 ZM34.35 234.59 A3.6 3.6 -180 1 0 27.15 234.59 A3.6 3.6 -180 1 0 34.35 234.59 ZM41.11 231.52 A3.6 3.6
							 -180 1 0 33.91 231.52 A3.6 3.6 -180 1 0 41.11 231.52 ZM44.19 224.75 A3.6 3.6 -180 1 0 36.99 224.75 A3.6
							 3.6 -180 1 0 44.19 224.75 ZM41.11 217.99 A3.6 3.6 -180 1 0 33.91 217.99 A3.6 3.6 -180 1 0 41.11 217.99
							 ZM34.35 214.91 A3.6 3.6 -180 1 0 27.15 214.91 A3.6 3.6 -180 1 0 34.35 214.91 ZM27.58 217.99 A3.6 3.6
							 -180 1 0 20.38 217.99 A3.6 3.6 -180 1 0 27.58 217.99 ZM24.51 224.75 A3.6 3.6 -180 1 0 17.31 224.75 A3.6
							 3.6 -180 1 0 24.51 224.75 ZM27.58 231.52 A3.6 3.6 -180 1 0 20.38 231.52 A3.6 3.6 -180 1 0 27.58 231.52
							 ZM34.35 234.59 A3.6 3.6 -180 1 0 27.15 234.59 A3.6 3.6 -180 1 0 34.35 234.59 ZM41.11 231.52 A3.6 3.6
							 -180 1 0 33.91 231.52 A3.6 3.6 -180 1 0 41.11 231.52 ZM44.19 224.75 A3.6 3.6 -180 1 0 36.99 224.75 A3.6
							 3.6 -180 1 0 44.19 224.75 ZM41.11 217.99 A3.6 3.6 -180 1 0 33.91 217.99 A3.6 3.6 -180 1 0 41.11 217.99
							 ZM34.35 214.91 A3.6 3.6 -180 1 0 27.15 214.91 A3.6 3.6 -180 1 0 34.35 214.91 ZM27.58 217.99 A3.6 3.6
							 -180 1 0 20.38 217.99 A3.6 3.6 -180 1 0 27.58 217.99 ZM24.51 224.75 A3.6 3.6 -180 1 0 17.31 224.75 A3.6
							 3.6 -180 1 0 24.51 224.75 ZM27.58 231.52 A3.6 3.6 -180 1 0 20.38 231.52 A3.6 3.6 -180 1 0 27.58 231.52
							 ZM34.35 234.59 A3.6 3.6 -180 1 0 27.15 234.59 A3.6 3.6 -180 1 0 34.35 234.59 ZM41.11 231.52 A3.6 3.6
							 -180 1 0 33.91 231.52 A3.6 3.6 -180 1 0 41.11 231.52 ZM44.19 224.75 A3.6 3.6 -180 1 0 36.99 224.75 A3.6
							 3.6 -180 1 0 44.19 224.75 ZM41.11 217.99 A3.6 3.6 -180 1 0 33.91 217.99 A3.6 3.6 -180 1 0 41.11 217.99
							 ZM34.35 214.91 A3.6 3.6 -180 1 0 27.15 214.91 A3.6 3.6 -180 1 0 34.35 214.91 ZM27.58 217.99 A3.6 3.6
							 -180 1 0 20.38 217.99 A3.6 3.6 -180 1 0 27.58 217.99 Z" class="st16"/>
			</g>
			<g id="shape211-101">
				<title>Sheet.211</title>
				<ellipse cx="30.75" cy="224.75" rx="15.375" ry="15.375" class="st17"/>
			</g>
			<g id="shape212-103" transform="translate(21.1406,-21.1406)">
				<title>Sheet.212</title>
				<ellipse cx="9.60937" cy="245.891" rx="9.60937" ry="9.60937" class="st18"/>
			</g>
			<g id="shape208-105">
				<text x="-23.57" y="234.5" class="st19">Public <tspan x="-23.57" dy="1.2em" class="st20">Edge Router                         </tspan></text>			</g>
		</g>
		<g id="group213-108" transform="translate(26.8156,-22)">
			<title>Ring network.213</title>
			<desc>Public Edge Router</desc>
			<g id="shape214-109">
				<title>Sheet.214</title>
				<path d="M28.7 228.85 L30.75 224.75" class="st15"/>
				<path d="M32.8 230.9 L30.75 224.75" class="st15"/>
				<path d="M29.25 220.25 L30.75 224.75" class="st15"/>
				<path d="M36.9 226.8 L30.75 224.75" class="st15"/>
				<path d="M32.8 222.7 L30.75 224.75" class="st15"/>
				<path d="M30.75 218.6 L30.75 224.75" class="st15"/>
				<path d="M24.6 214.5 L30.75 224.75" class="st15"/>
				<path d="M21 228.5 L30.75 224.75" class="st15"/>
				<path d="M23.98 231.52 L30.75 224.75" class="st15"/>
				<path d="M30.75 234.59 L30.75 224.75" class="st15"/>
				<path d="M28.7 222.7 L30.75 224.75" class="st15"/>
				<path d="M27 219.5 L30.75 224.75" class="st15"/>
				<path d="M37.51 217.99 L30.75 224.75" class="st15"/>
				<path d="M30.75 214.91 L30.75 224.75" class="st15"/>
				<path d="M23.98 217.99 L30.75 224.75" class="st15"/>
				<path d="M24.75 220.25 L30.75 224.75" class="st15"/>
				<path d="M23.98 231.52 L30.75 224.75" class="st15"/>
				<path d="M30.75 234.59 L30.75 224.75" class="st15"/>
				<path d="M189.75 148.25 L30.75 224.75" class="st15"/>
				<path d="M37.51 217.99 L30.75 224.75" class="st15"/>
				<path d="M30.75 214.91 L30.75 224.75" class="st15"/>
				<path d="M23.98 217.99 L30.75 224.75" class="st15"/>
				<path d="M20.91 224.75 L30.75 224.75" class="st15"/>
				<path d="M23.98 231.52 L30.75 224.75" class="st15"/>
				<path d="M30.75 234.59 L30.75 224.75" class="st15"/>
				<path d="M37.51 231.52 L30.75 224.75" class="st15"/>
				<path d="M225 74.75 L30.75 224.75" class="st15"/>
				<path d="M37.51 217.99 L30.75 224.75" class="st15"/>
				<path d="M30.75 214.91 L30.75 224.75" class="st15"/>
				<path d="M23.98 217.99 L30.75 224.75" class="st15"/>
				<path d="M20.91 224.75 L30.75 224.75" class="st15"/>
				<path d="M23.98 231.52 L30.75 224.75" class="st15"/>
				<path d="M30.75 234.59 L30.75 224.75" class="st15"/>
				<path d="M37.51 231.52 L30.75 224.75" class="st15"/>
				<path d="M40.59 224.75 L30.75 224.75" class="st15"/>
				<path d="M37.51 217.99 L30.75 224.75" class="st15"/>
				<path d="M30.75 214.91 L30.75 224.75" class="st15"/>
				<path d="M23.98 217.99 L30.75 224.75" class="st15"/>
				<path d="M20.91 224.75 L30.75 224.75" class="st15"/>
				<path d="M23.98 231.52 L30.75 224.75" class="st15"/>
				<path d="M30.75 234.59 L30.75 224.75" class="st15"/>
				<path d="M37.51 231.52 L30.75 224.75" class="st15"/>
				<path d="M40.59 224.75 L30.75 224.75" class="st15"/>
				<path d="M37.51 217.99 L30.75 224.75" class="st15"/>
				<path d="M30.75 214.91 L30.75 224.75" class="st15"/>
				<path d="M23.98 217.99 L30.75 224.75" class="st15"/>
				<path d="M20.91 224.75 L30.75 224.75" class="st15"/>
				<path d="M23.98 231.52 L30.75 224.75" class="st15"/>
				<path d="M30.75 234.59 L30.75 224.75" class="st15"/>
				<path d="M37.51 231.52 L30.75 224.75" class="st15"/>
				<path d="M40.59 224.75 L30.75 224.75" class="st15"/>
				<path d="M37.51 217.99 L30.75 224.75" class="st15"/>
				<path d="M30.75 214.91 L30.75 224.75" class="st15"/>
				<path d="M23.98 217.99 L30.75 224.75" class="st15"/>
				<path d="M20.91 224.75 L30.75 224.75" class="st15"/>
				<path d="M23.98 231.52 L30.75 224.75" class="st15"/>
				<path d="M30.75 234.59 L30.75 224.75" class="st15"/>
				<path d="M37.51 231.52 L30.75 224.75" class="st15"/>
				<path d="M40.59 224.75 L30.75 224.75" class="st15"/>
				<path d="M37.51 217.99 L30.75 224.75" class="st15"/>
				<path d="M30.75 214.91 L30.75 224.75" class="st15"/>
				<path d="M23.98 217.99 L30.75 224.75" class="st15"/>
			</g>
			<g id="shape215-173">
				<title>Sheet.215</title>
				<path d="M24.6 228.5 A3.6 3.6 -180 1 0 17.4 228.5 A3.6 3.6 -180 1 0 24.6 228.5 ZM28.2 214.5 A3.6 3.6 -180 1 0 21
							 214.5 A3.6 3.6 -180 1 0 28.2 214.5 ZM34.35 218.6 A3.6 3.6 -180 1 0 27.15 218.6 A3.6 3.6 -180 1 0 34.35
							 218.6 ZM36.4 222.7 A3.6 3.6 -180 1 0 29.2 222.7 A3.6 3.6 -180 1 0 36.4 222.7 ZM40.5 226.8 A3.6 3.6 -180
							 1 0 33.3 226.8 A3.6 3.6 -180 1 0 40.5 226.8 ZM32.85 220.25 A3.6 3.6 -180 1 0 25.65 220.25 A3.6 3.6 -180
							 1 0 32.85 220.25 ZM36.4 230.9 A3.6 3.6 -180 1 0 29.2 230.9 A3.6 3.6 -180 1 0 36.4 230.9 ZM32.3 228.85
							 A3.6 3.6 -180 1 0 25.1 228.85 A3.6 3.6 -180 1 0 32.3 228.85 ZM34.35 224.75 A3.6 3.6 -180 1 0 27.15 224.75
							 A3.6 3.6 -180 1 0 34.35 224.75 ZM27.58 231.52 A3.6 3.6 -180 1 0 20.38 231.52 A3.6 3.6 -180 1 0 27.58
							 231.52 ZM34.35 234.59 A3.6 3.6 -180 1 0 27.15 234.59 A3.6 3.6 -180 1 0 34.35 234.59 ZM32.3 222.7 A3.6
							 3.6 -180 1 0 25.1 222.7 A3.6 3.6 -180 1 0 32.3 222.7 ZM30.6 219.5 A3.6 3.6 -180 1 0 23.4 219.5 A3.6
							 3.6 -180 1 0 30.6 219.5 ZM41.11 217.99 A3.6 3.6 -180 1 0 33.91 217.99 A3.6 3.6 -180 1 0 41.11 217.99
							 ZM34.35 214.91 A3.6 3.6 -180 1 0 27.15 214.91 A3.6 3.6 -180 1 0 34.35 214.91 ZM27.58 217.99 A3.6 3.6
							 -180 1 0 20.38 217.99 A3.6 3.6 -180 1 0 27.58 217.99 ZM28.35 220.25 A3.6 3.6 -180 1 0 21.15 220.25 A3.6
							 3.6 -180 1 0 28.35 220.25 ZM27.58 231.52 A3.6 3.6 -180 1 0 20.38 231.52 A3.6 3.6 -180 1 0 27.58 231.52
							 ZM34.35 234.59 A3.6 3.6 -180 1 0 27.15 234.59 A3.6 3.6 -180 1 0 34.35 234.59 ZM193.35 148.25 A3.6 3.6
							 -180 1 0 186.15 148.25 A3.6 3.6 -180 1 0 193.35 148.25 ZM34.35 224.75 A3.6 3.6 -180 1 0 27.15 224.75
							 A3.6 3.6 -180 1 0 34.35 224.75 ZM41.11 217.99 A3.6 3.6 -180 1 0 33.91 217.99 A3.6 3.6 -180 1 0 41.11
							 217.99 ZM34.35 214.91 A3.6 3.6 -180 1 0 27.15 214.91 A3.6 3.6 -180 1 0 34.35 214.91 ZM27.58 217.99 A3.6
							 3.6 -180 1 0 20.38 217.99 A3.6 3.6 -180 1 0 27.58 217.99 ZM24.51 224.75 A3.6 3.6 -180 1 0 17.31 224.75
							 A3.6 3.6 -180 1 0 24.51 224.75 ZM27.58 231.52 A3.6 3.6 -180 1 0 20.38 231.52 A3.6 3.6 -180 1 0 27.58
							 231.52 ZM34.35 234.59 A3.6 3.6 -180 1 0 27.15 234.59 A3.6 3.6 -180 1 0 34.35 234.59 ZM41.11 231.52 A3.6
							 3.6 -180 1 0 33.91 231.52 A3.6 3.6 -180 1 0 41.11 231.52 ZM228.6 74.75 A3.6 3.6 -180 1 0 221.4 74.75
							 A3.6 3.6 -180 1 0 228.6 74.75 ZM41.11 217.99 A3.6 3.6 -180 1 0 33.91 217.99 A3.6 3.6 -180 1 0 41.11
							 217.99 ZM34.35 214.91 A3.6 3.6 -180 1 0 27.15 214.91 A3.6 3.6 -180 1 0 34.35 214.91 ZM27.58 217.99 A3.6
							 3.6 -180 1 0 20.38 217.99 A3.6 3.6 -180 1 0 27.58 217.99 ZM24.51 224.75 A3.6 3.6 -180 1 0 17.31 224.75
							 A3.6 3.6 -180 1 0 24.51 224.75 ZM27.58 231.52 A3.6 3.6 -180 1 0 20.38 231.52 A3.6 3.6 -180 1 0 27.58
							 231.52 ZM34.35 234.59 A3.6 3.6 -180 1 0 27.15 234.59 A3.6 3.6 -180 1 0 34.35 234.59 ZM41.11 231.52 A3.6
							 3.6 -180 1 0 33.91 231.52 A3.6 3.6 -180 1 0 41.11 231.52 ZM44.19 224.75 A3.6 3.6 -180 1 0 36.99 224.75
							 A3.6 3.6 -180 1 0 44.19 224.75 ZM41.11 217.99 A3.6 3.6 -180 1 0 33.91 217.99 A3.6 3.6 -180 1 0 41.11
							 217.99 ZM34.35 214.91 A3.6 3.6 -180 1 0 27.15 214.91 A3.6 3.6 -180 1 0 34.35 214.91 ZM27.58 217.99 A3.6
							 3.6 -180 1 0 20.38 217.99 A3.6 3.6 -180 1 0 27.58 217.99 ZM24.51 224.75 A3.6 3.6 -180 1 0 17.31 224.75
							 A3.6 3.6 -180 1 0 24.51 224.75 ZM27.58 231.52 A3.6 3.6 -180 1 0 20.38 231.52 A3.6 3.6 -180 1 0 27.58
							 231.52 ZM34.35 234.59 A3.6 3.6 -180 1 0 27.15 234.59 A3.6 3.6 -180 1 0 34.35 234.59 ZM41.11 231.52 A3.6
							 3.6 -180 1 0 33.91 231.52 A3.6 3.6 -180 1 0 41.11 231.52 ZM44.19 224.75 A3.6 3.6 -180 1 0 36.99 224.75
							 A3.6 3.6 -180 1 0 44.19 224.75 ZM41.11 217.99 A3.6 3.6 -180 1 0 33.91 217.99 A3.6 3.6 -180 1 0 41.11
							 217.99 ZM34.35 214.91 A3.6 3.6 -180 1 0 27.15 214.91 A3.6 3.6 -180 1 0 34.35 214.91 ZM27.58 217.99 A3.6
							 3.6 -180 1 0 20.38 217.99 A3.6 3.6 -180 1 0 27.58 217.99 ZM24.51 224.75 A3.6 3.6 -180 1 0 17.31 224.75
							 A3.6 3.6 -180 1 0 24.51 224.75 ZM27.58 231.52 A3.6 3.6 -180 1 0 20.38 231.52 A3.6 3.6 -180 1 0 27.58
							 231.52 ZM34.35 234.59 A3.6 3.6 -180 1 0 27.15 234.59 A3.6 3.6 -180 1 0 34.35 234.59 ZM41.11 231.52 A3.6
							 3.6 -180 1 0 33.91 231.52 A3.6 3.6 -180 1 0 41.11 231.52 ZM44.19 224.75 A3.6 3.6 -180 1 0 36.99 224.75
							 A3.6 3.6 -180 1 0 44.19 224.75 ZM41.11 217.99 A3.6 3.6 -180 1 0 33.91 217.99 A3.6 3.6 -180 1 0 41.11
							 217.99 ZM34.35 214.91 A3.6 3.6 -180 1 0 27.15 214.91 A3.6 3.6 -180 1 0 34.35 214.91 ZM27.58 217.99 A3.6
							 3.6 -180 1 0 20.38 217.99 A3.6 3.6 -180 1 0 27.58 217.99 ZM24.51 224.75 A3.6 3.6 -180 1 0 17.31 224.75
							 A3.6 3.6 -180 1 0 24.51 224.75 ZM27.58 231.52 A3.6 3.6 -180 1 0 20.38 231.52 A3.6 3.6 -180 1 0 27.58
							 231.52 ZM34.35 234.59 A3.6 3.6 -180 1 0 27.15 234.59 A3.6 3.6 -180 1 0 34.35 234.59 ZM41.11 231.52 A3.6
							 3.6 -180 1 0 33.91 231.52 A3.6 3.6 -180 1 0 41.11 231.52 ZM44.19 224.75 A3.6 3.6 -180 1 0 36.99 224.75
							 A3.6 3.6 -180 1 0 44.19 224.75 ZM41.11 217.99 A3.6 3.6 -180 1 0 33.91 217.99 A3.6 3.6 -180 1 0 41.11
							 217.99 ZM34.35 214.91 A3.6 3.6 -180 1 0 27.15 214.91 A3.6 3.6 -180 1 0 34.35 214.91 ZM27.58 217.99 A3.6
							 3.6 -180 1 0 20.38 217.99 A3.6 3.6 -180 1 0 27.58 217.99 Z" class="st16"/>
			</g>
			<g id="shape216-175">
				<title>Sheet.216</title>
				<ellipse cx="30.75" cy="224.75" rx="15.375" ry="15.375" class="st17"/>
			</g>
			<g id="shape217-177" transform="translate(21.1406,-21.1406)">
				<title>Sheet.217</title>
				<ellipse cx="9.60937" cy="245.891" rx="9.60937" ry="9.60937" class="st18"/>
			</g>
			<g id="shape213-179">
				<text x="-21.3" y="234.5" class="st19">Public <tspan x="-21.3" dy="1.2em" class="st20">Edge Router                       </tspan></text>			</g>
		</g>
		<g id="group192-182" transform="translate(221.066,-172)">
			<title>Ring network.192</title>
			<desc>Blue Router</desc>
			<g id="shape193-183">
				<title>Sheet.193</title>
				<path d="M31.5 224.75 L30.75 224.75" class="st21"/>
				<path d="M31.5 224.75 L30.75 224.75" class="st21"/>
				<path d="M31.5 233.75 L30.75 224.75" class="st21"/>
				<path d="M33 224.75 L30.75 224.75" class="st21"/>
				<path d="M32.8 222.7 L30.75 224.75" class="st21"/>
				<path d="M33 224.75 L30.75 224.75" class="st21"/>
				<path d="M33 224.75 L30.75 224.75" class="st21"/>
				<path d="M24 224.75 L30.75 224.75" class="st21"/>
				<path d="M20.91 224.75 L30.75 224.75" class="st21"/>
				<path d="M23.98 231.52 L30.75 224.75" class="st21"/>
				<path d="M30.75 234.59 L30.75 224.75" class="st21"/>
				<path d="M102.75 233.75 L30.75 224.75" class="st21"/>
				<path d="M40.59 224.75 L30.75 224.75" class="st21"/>
				<path d="M37.51 217.99 L30.75 224.75" class="st21"/>
				<path d="M30.75 214.91 L30.75 224.75" class="st21"/>
				<path d="M23.98 217.99 L30.75 224.75" class="st21"/>
				<path d="M20.91 224.75 L30.75 224.75" class="st21"/>
				<path d="M23.98 231.52 L30.75 224.75" class="st21"/>
				<path d="M30.75 234.59 L30.75 224.75" class="st21"/>
				<path d="M37.51 231.52 L30.75 224.75" class="st21"/>
				<path d="M40.59 224.75 L30.75 224.75" class="st21"/>
				<path d="M37.51 217.99 L30.75 224.75" class="st21"/>
				<path d="M30.75 214.91 L30.75 224.75" class="st21"/>
				<path d="M23.98 217.99 L30.75 224.75" class="st21"/>
				<path d="M20.91 224.75 L30.75 224.75" class="st21"/>
				<path d="M23.98 231.52 L30.75 224.75" class="st21"/>
				<path d="M30.75 234.59 L30.75 224.75" class="st21"/>
				<path d="M37.51 231.52 L30.75 224.75" class="st21"/>
				<path d="M40.59 224.75 L30.75 224.75" class="st21"/>
				<path d="M37.51 217.99 L30.75 224.75" class="st21"/>
				<path d="M30.75 214.91 L30.75 224.75" class="st21"/>
				<path d="M23.98 217.99 L30.75 224.75" class="st21"/>
				<path d="M20.91 224.75 L30.75 224.75" class="st21"/>
				<path d="M23.98 231.52 L30.75 224.75" class="st21"/>
				<path d="M30.75 234.59 L30.75 224.75" class="st21"/>
				<path d="M37.51 231.52 L30.75 224.75" class="st21"/>
				<path d="M40.59 224.75 L30.75 224.75" class="st21"/>
				<path d="M37.51 217.99 L30.75 224.75" class="st21"/>
				<path d="M30.75 214.91 L30.75 224.75" class="st21"/>
				<path d="M23.98 217.99 L30.75 224.75" class="st21"/>
				<path d="M20.91 224.75 L30.75 224.75" class="st21"/>
				<path d="M23.98 231.52 L30.75 224.75" class="st21"/>
				<path d="M30.75 234.59 L30.75 224.75" class="st21"/>
				<path d="M37.51 231.52 L30.75 224.75" class="st21"/>
				<path d="M40.59 224.75 L30.75 224.75" class="st21"/>
				<path d="M37.51 217.99 L30.75 224.75" class="st21"/>
				<path d="M30.75 214.91 L30.75 224.75" class="st21"/>
				<path d="M23.98 217.99 L30.75 224.75" class="st21"/>
				<path d="M20.91 224.75 L30.75 224.75" class="st21"/>
				<path d="M23.98 231.52 L30.75 224.75" class="st21"/>
				<path d="M30.75 234.59 L30.75 224.75" class="st21"/>
				<path d="M37.51 231.52 L30.75 224.75" class="st21"/>
				<path d="M40.59 224.75 L30.75 224.75" class="st21"/>
				<path d="M37.51 217.99 L30.75 224.75" class="st21"/>
				<path d="M30.75 214.91 L30.75 224.75" class="st21"/>
				<path d="M23.98 217.99 L30.75 224.75" class="st21"/>
				<path d="M20.91 224.75 L30.75 224.75" class="st21"/>
				<path d="M23.98 231.52 L30.75 224.75" class="st21"/>
				<path d="M30.75 234.59 L30.75 224.75" class="st21"/>
				<path d="M37.51 231.52 L30.75 224.75" class="st21"/>
				<path d="M40.59 224.75 L30.75 224.75" class="st21"/>
				<path d="M37.51 217.99 L30.75 224.75" class="st21"/>
				<path d="M30.75 214.91 L30.75 224.75" class="st21"/>
				<path d="M23.98 217.99 L30.75 224.75" class="st21"/>
			</g>
			<g id="shape194-249">
				<title>Sheet.194</title>
				<path d="M27.6 224.75 A3.6 3.6 -180 1 0 20.4 224.75 A3.6 3.6 -180 1 0 27.6 224.75 ZM36.6 224.75 A3.6 3.6 -180 1 0
							 29.4 224.75 A3.6 3.6 -180 1 0 36.6 224.75 ZM36.6 224.75 A3.6 3.6 -180 1 0 29.4 224.75 A3.6 3.6 -180
							 1 0 36.6 224.75 ZM36.4 222.7 A3.6 3.6 -180 1 0 29.2 222.7 A3.6 3.6 -180 1 0 36.4 222.7 ZM36.6 224.75
							 A3.6 3.6 -180 1 0 29.4 224.75 A3.6 3.6 -180 1 0 36.6 224.75 ZM35.1 233.75 A3.6 3.6 -180 1 0 27.9 233.75
							 A3.6 3.6 -180 1 0 35.1 233.75 ZM35.1 224.75 A3.6 3.6 -180 1 0 27.9 224.75 A3.6 3.6 -180 1 0 35.1 224.75
							 ZM35.1 224.75 A3.6 3.6 -180 1 0 27.9 224.75 A3.6 3.6 -180 1 0 35.1 224.75 ZM24.51 224.75 A3.6 3.6 -180
							 1 0 17.31 224.75 A3.6 3.6 -180 1 0 24.51 224.75 ZM27.58 231.52 A3.6 3.6 -180 1 0 20.38 231.52 A3.6 3.6
							 -180 1 0 27.58 231.52 ZM34.35 234.59 A3.6 3.6 -180 1 0 27.15 234.59 A3.6 3.6 -180 1 0 34.35 234.59 ZM106.35
							 233.75 A3.6 3.6 -180 1 0 99.15 233.75 A3.6 3.6 -180 1 0 106.35 233.75 ZM44.19 224.75 A3.6 3.6 -180 1
							 0 36.99 224.75 A3.6 3.6 -180 1 0 44.19 224.75 ZM41.11 217.99 A3.6 3.6 -180 1 0 33.91 217.99 A3.6 3.6
							 -180 1 0 41.11 217.99 ZM34.35 214.91 A3.6 3.6 -180 1 0 27.15 214.91 A3.6 3.6 -180 1 0 34.35 214.91 ZM27.58
							 217.99 A3.6 3.6 -180 1 0 20.38 217.99 A3.6 3.6 -180 1 0 27.58 217.99 ZM24.51 224.75 A3.6 3.6 -180 1
							 0 17.31 224.75 A3.6 3.6 -180 1 0 24.51 224.75 ZM27.58 231.52 A3.6 3.6 -180 1 0 20.38 231.52 A3.6 3.6
							 -180 1 0 27.58 231.52 ZM34.35 234.59 A3.6 3.6 -180 1 0 27.15 234.59 A3.6 3.6 -180 1 0 34.35 234.59 ZM41.11
							 231.52 A3.6 3.6 -180 1 0 33.91 231.52 A3.6 3.6 -180 1 0 41.11 231.52 ZM44.19 224.75 A3.6 3.6 -180 1
							 0 36.99 224.75 A3.6 3.6 -180 1 0 44.19 224.75 ZM41.11 217.99 A3.6 3.6 -180 1 0 33.91 217.99 A3.6 3.6
							 -180 1 0 41.11 217.99 ZM34.35 214.91 A3.6 3.6 -180 1 0 27.15 214.91 A3.6 3.6 -180 1 0 34.35 214.91 ZM27.58
							 217.99 A3.6 3.6 -180 1 0 20.38 217.99 A3.6 3.6 -180 1 0 27.58 217.99 ZM24.51 224.75 A3.6 3.6 -180 1
							 0 17.31 224.75 A3.6 3.6 -180 1 0 24.51 224.75 ZM27.58 231.52 A3.6 3.6 -180 1 0 20.38 231.52 A3.6 3.6
							 -180 1 0 27.58 231.52 ZM34.35 234.59 A3.6 3.6 -180 1 0 27.15 234.59 A3.6 3.6 -180 1 0 34.35 234.59 ZM41.11
							 231.52 A3.6 3.6 -180 1 0 33.91 231.52 A3.6 3.6 -180 1 0 41.11 231.52 ZM44.19 224.75 A3.6 3.6 -180 1
							 0 36.99 224.75 A3.6 3.6 -180 1 0 44.19 224.75 ZM41.11 217.99 A3.6 3.6 -180 1 0 33.91 217.99 A3.6 3.6
							 -180 1 0 41.11 217.99 ZM34.35 214.91 A3.6 3.6 -180 1 0 27.15 214.91 A3.6 3.6 -180 1 0 34.35 214.91 ZM27.58
							 217.99 A3.6 3.6 -180 1 0 20.38 217.99 A3.6 3.6 -180 1 0 27.58 217.99 ZM24.51 224.75 A3.6 3.6 -180 1
							 0 17.31 224.75 A3.6 3.6 -180 1 0 24.51 224.75 ZM27.58 231.52 A3.6 3.6 -180 1 0 20.38 231.52 A3.6 3.6
							 -180 1 0 27.58 231.52 ZM34.35 234.59 A3.6 3.6 -180 1 0 27.15 234.59 A3.6 3.6 -180 1 0 34.35 234.59 ZM41.11
							 231.52 A3.6 3.6 -180 1 0 33.91 231.52 A3.6 3.6 -180 1 0 41.11 231.52 ZM44.19 224.75 A3.6 3.6 -180 1
							 0 36.99 224.75 A3.6 3.6 -180 1 0 44.19 224.75 ZM41.11 217.99 A3.6 3.6 -180 1 0 33.91 217.99 A3.6 3.6
							 -180 1 0 41.11 217.99 ZM34.35 214.91 A3.6 3.6 -180 1 0 27.15 214.91 A3.6 3.6 -180 1 0 34.35 214.91 ZM27.58
							 217.99 A3.6 3.6 -180 1 0 20.38 217.99 A3.6 3.6 -180 1 0 27.58 217.99 ZM24.51 224.75 A3.6 3.6 -180 1
							 0 17.31 224.75 A3.6 3.6 -180 1 0 24.51 224.75 ZM27.58 231.52 A3.6 3.6 -180 1 0 20.38 231.52 A3.6 3.6
							 -180 1 0 27.58 231.52 ZM34.35 234.59 A3.6 3.6 -180 1 0 27.15 234.59 A3.6 3.6 -180 1 0 34.35 234.59 ZM41.11
							 231.52 A3.6 3.6 -180 1 0 33.91 231.52 A3.6 3.6 -180 1 0 41.11 231.52 ZM44.19 224.75 A3.6 3.6 -180 1
							 0 36.99 224.75 A3.6 3.6 -180 1 0 44.19 224.75 ZM41.11 217.99 A3.6 3.6 -180 1 0 33.91 217.99 A3.6 3.6
							 -180 1 0 41.11 217.99 ZM34.35 214.91 A3.6 3.6 -180 1 0 27.15 214.91 A3.6 3.6 -180 1 0 34.35 214.91 ZM27.58
							 217.99 A3.6 3.6 -180 1 0 20.38 217.99 A3.6 3.6 -180 1 0 27.58 217.99 ZM24.51 224.75 A3.6 3.6 -180 1
							 0 17.31 224.75 A3.6 3.6 -180 1 0 24.51 224.75 ZM27.58 231.52 A3.6 3.6 -180 1 0 20.38 231.52 A3.6 3.6
							 -180 1 0 27.58 231.52 ZM34.35 234.59 A3.6 3.6 -180 1 0 27.15 234.59 A3.6 3.6 -180 1 0 34.35 234.59 ZM41.11
							 231.52 A3.6 3.6 -180 1 0 33.91 231.52 A3.6 3.6 -180 1 0 41.11 231.52 ZM44.19 224.75 A3.6 3.6 -180 1
							 0 36.99 224.75 A3.6 3.6 -180 1 0 44.19 224.75 ZM41.11 217.99 A3.6 3.6 -180 1 0 33.91 217.99 A3.6 3.6
							 -180 1 0 41.11 217.99 ZM34.35 214.91 A3.6 3.6 -180 1 0 27.15 214.91 A3.6 3.6 -180 1 0 34.35 214.91 ZM27.58
							 217.99 A3.6 3.6 -180 1 0 20.38 217.99 A3.6 3.6 -180 1 0 27.58 217.99 ZM24.51 224.75 A3.6 3.6 -180 1
							 0 17.31 224.75 A3.6 3.6 -180 1 0 24.51 224.75 ZM27.58 231.52 A3.6 3.6 -180 1 0 20.38 231.52 A3.6 3.6
							 -180 1 0 27.58 231.52 ZM34.35 234.59 A3.6 3.6 -180 1 0 27.15 234.59 A3.6 3.6 -180 1 0 34.35 234.59 ZM41.11
							 231.52 A3.6 3.6 -180 1 0 33.91 231.52 A3.6 3.6 -180 1 0 41.11 231.52 ZM44.19 224.75 A3.6 3.6 -180 1
							 0 36.99 224.75 A3.6 3.6 -180 1 0 44.19 224.75 ZM41.11 217.99 A3.6 3.6 -180 1 0 33.91 217.99 A3.6 3.6
							 -180 1 0 41.11 217.99 ZM34.35 214.91 A3.6 3.6 -180 1 0 27.15 214.91 A3.6 3.6 -180 1 0 34.35 214.91 ZM27.58
							 217.99 A3.6 3.6 -180 1 0 20.38 217.99 A3.6 3.6 -180 1 0 27.58 217.99 Z" class="st22"/>
			</g>
			<g id="shape195-251">
				<title>Sheet.195</title>
				<ellipse cx="30.75" cy="224.75" rx="15.375" ry="15.375" class="st23"/>
			</g>
			<g id="shape196-253" transform="translate(21.1406,-21.1406)">
				<title>Sheet.196</title>
				<ellipse cx="9.60937" cy="245.891" rx="9.60937" ry="9.60937" class="st18"/>
			</g>
			<g id="shape192-255">
				<text x="6.75" y="260.75" class="st24">Blue Router</text>			</g>
		</g>
		<g id="group223-257" transform="translate(185.816,-98.5012)">
			<title>Sheet.223</title>
			<g id="group73-258" transform="translate(0.00120861,-0.00120861)">
				<title>Ring network.73</title>
				<g id="shape74-259">
					<title>Sheet.74</title>
					<path d="M28.7 228.85 L30.75 224.75" class="st25"/>
					<path d="M32.8 230.9 L30.75 224.75" class="st25"/>
					<path d="M66 151.25 L30.75 224.75" class="st25"/>
					<path d="M36.9 226.8 L30.75 224.75" class="st25"/>
					<path d="M32.8 222.7 L30.75 224.75" class="st25"/>
					<path d="M30.75 218.6 L30.75 224.75" class="st25"/>
					<path d="M24.6 214.5 L30.75 224.75" class="st25"/>
					<path d="M21 228.5 L30.75 224.75" class="st25"/>
					<path d="M23.98 231.52 L30.75 224.75" class="st25"/>
					<path d="M30.75 234.59 L30.75 224.75" class="st25"/>
					<path d="M28.7 222.7 L30.75 224.75" class="st25"/>
					<path d="M27 219.5 L30.75 224.75" class="st25"/>
					<path d="M37.51 217.99 L30.75 224.75" class="st25"/>
					<path d="M30.75 214.91 L30.75 224.75" class="st25"/>
					<path d="M23.98 217.99 L30.75 224.75" class="st25"/>
					<path d="M25.5 225.12 L30.75 224.75" class="st25"/>
					<path d="M23.98 231.52 L30.75 224.75" class="st25"/>
					<path d="M30.75 234.59 L30.75 224.75" class="st25"/>
					<path d="M66 278.75 L30.75 224.75" class="st25"/>
					<path d="M37.51 217.99 L30.75 224.75" class="st25"/>
					<path d="M30.75 214.91 L30.75 224.75" class="st25"/>
					<path d="M23.98 217.99 L30.75 224.75" class="st25"/>
					<path d="M20.91 224.75 L30.75 224.75" class="st25"/>
					<path d="M23.98 231.52 L30.75 224.75" class="st25"/>
					<path d="M30.75 234.59 L30.75 224.75" class="st25"/>
					<path d="M37.51 231.52 L30.75 224.75" class="st25"/>
					<path d="M40.59 224.75 L30.75 224.75" class="st25"/>
					<path d="M37.51 217.99 L30.75 224.75" class="st25"/>
					<path d="M30.75 214.91 L30.75 224.75" class="st25"/>
					<path d="M23.98 217.99 L30.75 224.75" class="st25"/>
					<path d="M20.91 224.75 L30.75 224.75" class="st25"/>
					<path d="M23.98 231.52 L30.75 224.75" class="st25"/>
					<path d="M30.75 234.59 L30.75 224.75" class="st25"/>
					<path d="M37.51 231.52 L30.75 224.75" class="st25"/>
					<path d="M40.59 224.75 L30.75 224.75" class="st25"/>
					<path d="M37.51 217.99 L30.75 224.75" class="st25"/>
					<path d="M30.75 214.91 L30.75 224.75" class="st25"/>
					<path d="M23.98 217.99 L30.75 224.75" class="st25"/>
					<path d="M20.91 224.75 L30.75 224.75" class="st25"/>
					<path d="M23.98 231.52 L30.75 224.75" class="st25"/>
					<path d="M30.75 234.59 L30.75 224.75" class="st25"/>
					<path d="M37.51 231.52 L30.75 224.75" class="st25"/>
					<path d="M40.59 224.75 L30.75 224.75" class="st25"/>
					<path d="M37.51 217.99 L30.75 224.75" class="st25"/>
					<path d="M30.75 214.91 L30.75 224.75" class="st25"/>
					<path d="M23.98 217.99 L30.75 224.75" class="st25"/>
					<path d="M20.91 224.75 L30.75 224.75" class="st25"/>
					<path d="M23.98 231.52 L30.75 224.75" class="st25"/>
					<path d="M30.75 234.59 L30.75 224.75" class="st25"/>
					<path d="M37.51 231.52 L30.75 224.75" class="st25"/>
					<path d="M40.59 224.75 L30.75 224.75" class="st25"/>
					<path d="M37.51 217.99 L30.75 224.75" class="st25"/>
					<path d="M30.75 214.91 L30.75 224.75" class="st25"/>
					<path d="M23.98 217.99 L30.75 224.75" class="st25"/>
					<path d="M20.91 224.75 L30.75 224.75" class="st25"/>
					<path d="M23.98 231.52 L30.75 224.75" class="st25"/>
					<path d="M30.75 234.59 L30.75 224.75" class="st25"/>
					<path d="M37.51 231.52 L30.75 224.75" class="st25"/>
					<path d="M40.59 224.75 L30.75 224.75" class="st25"/>
					<path d="M37.51 217.99 L30.75 224.75" class="st25"/>
					<path d="M30.75 214.91 L30.75 224.75" class="st25"/>
					<path d="M23.98 217.99 L30.75 224.75" class="st25"/>
				</g>
				<g id="shape75-323">
					<title>Sheet.75</title>
					<path d="M24.6 228.5 A3.6 3.6 -180 1 0 17.4 228.5 A3.6 3.6 -180 1 0 24.6 228.5 ZM28.2 214.5 A3.6 3.6 -180 1 0
								 21 214.5 A3.6 3.6 -180 1 0 28.2 214.5 ZM34.35 218.6 A3.6 3.6 -180 1 0 27.15 218.6 A3.6 3.6 -180
								 1 0 34.35 218.6 ZM36.4 222.7 A3.6 3.6 -180 1 0 29.2 222.7 A3.6 3.6 -180 1 0 36.4 222.7 ZM40.5 226.8
								 A3.6 3.6 -180 1 0 33.3 226.8 A3.6 3.6 -180 1 0 40.5 226.8 ZM69.6 151.25 A3.6 3.6 -180 1 0 62.4 151.25
								 A3.6 3.6 -180 1 0 69.6 151.25 ZM36.4 230.9 A3.6 3.6 -180 1 0 29.2 230.9 A3.6 3.6 -180 1 0 36.4 230.9
								 ZM32.3 228.85 A3.6 3.6 -180 1 0 25.1 228.85 A3.6 3.6 -180 1 0 32.3 228.85 ZM34.35 224.75 A3.6 3.6
								 -180 1 0 27.15 224.75 A3.6 3.6 -180 1 0 34.35 224.75 ZM27.58 231.52 A3.6 3.6 -180 1 0 20.38 231.52
								 A3.6 3.6 -180 1 0 27.58 231.52 ZM34.35 234.59 A3.6 3.6 -180 1 0 27.15 234.59 A3.6 3.6 -180 1 0 34.35
								 234.59 ZM32.3 222.7 A3.6 3.6 -180 1 0 25.1 222.7 A3.6 3.6 -180 1 0 32.3 222.7 ZM30.6 219.5 A3.6
								 3.6 -180 1 0 23.4 219.5 A3.6 3.6 -180 1 0 30.6 219.5 ZM41.11 217.99 A3.6 3.6 -180 1 0 33.91 217.99
								 A3.6 3.6 -180 1 0 41.11 217.99 ZM34.35 214.91 A3.6 3.6 -180 1 0 27.15 214.91 A3.6 3.6 -180 1 0 34.35
								 214.91 ZM27.58 217.99 A3.6 3.6 -180 1 0 20.38 217.99 A3.6 3.6 -180 1 0 27.58 217.99 ZM29.1 225.12
								 A3.6 3.6 -180 1 0 21.9 225.12 A3.6 3.6 -180 1 0 29.1 225.12 ZM27.58 231.52 A3.6 3.6 -180 1 0 20.38
								 231.52 A3.6 3.6 -180 1 0 27.58 231.52 ZM34.35 234.59 A3.6 3.6 -180 1 0 27.15 234.59 A3.6 3.6 -180
								 1 0 34.35 234.59 ZM69.6 278.75 A3.6 3.6 -180 1 0 62.4 278.75 A3.6 3.6 -180 1 0 69.6 278.75 ZM34.35
								 224.75 A3.6 3.6 -180 1 0 27.15 224.75 A3.6 3.6 -180 1 0 34.35 224.75 ZM41.11 217.99 A3.6 3.6 -180
								 1 0 33.91 217.99 A3.6 3.6 -180 1 0 41.11 217.99 ZM34.35 214.91 A3.6 3.6 -180 1 0 27.15 214.91 A3.6
								 3.6 -180 1 0 34.35 214.91 ZM27.58 217.99 A3.6 3.6 -180 1 0 20.38 217.99 A3.6 3.6 -180 1 0 27.58
								 217.99 ZM24.51 224.75 A3.6 3.6 -180 1 0 17.31 224.75 A3.6 3.6 -180 1 0 24.51 224.75 ZM27.58 231.52
								 A3.6 3.6 -180 1 0 20.38 231.52 A3.6 3.6 -180 1 0 27.58 231.52 ZM34.35 234.59 A3.6 3.6 -180 1 0 27.15
								 234.59 A3.6 3.6 -180 1 0 34.35 234.59 ZM41.11 231.52 A3.6 3.6 -180 1 0 33.91 231.52 A3.6 3.6 -180
								 1 0 41.11 231.52 ZM44.19 224.75 A3.6 3.6 -180 1 0 36.99 224.75 A3.6 3.6 -180 1 0 44.19 224.75 ZM41.11
								 217.99 A3.6 3.6 -180 1 0 33.91 217.99 A3.6 3.6 -180 1 0 41.11 217.99 ZM34.35 214.91 A3.6 3.6 -180
								 1 0 27.15 214.91 A3.6 3.6 -180 1 0 34.35 214.91 ZM27.58 217.99 A3.6 3.6 -180 1 0 20.38 217.99 A3.6
								 3.6 -180 1 0 27.58 217.99 ZM24.51 224.75 A3.6 3.6 -180 1 0 17.31 224.75 A3.6 3.6 -180 1 0 24.51
								 224.75 ZM27.58 231.52 A3.6 3.6 -180 1 0 20.38 231.52 A3.6 3.6 -180 1 0 27.58 231.52 ZM34.35 234.59
								 A3.6 3.6 -180 1 0 27.15 234.59 A3.6 3.6 -180 1 0 34.35 234.59 ZM41.11 231.52 A3.6 3.6 -180 1 0 33.91
								 231.52 A3.6 3.6 -180 1 0 41.11 231.52 ZM44.19 224.75 A3.6 3.6 -180 1 0 36.99 224.75 A3.6 3.6 -180
								 1 0 44.19 224.75 ZM41.11 217.99 A3.6 3.6 -180 1 0 33.91 217.99 A3.6 3.6 -180 1 0 41.11 217.99 ZM34.35
								 214.91 A3.6 3.6 -180 1 0 27.15 214.91 A3.6 3.6 -180 1 0 34.35 214.91 ZM27.58 217.99 A3.6 3.6 -180
								 1 0 20.38 217.99 A3.6 3.6 -180 1 0 27.58 217.99 ZM24.51 224.75 A3.6 3.6 -180 1 0 17.31 224.75 A3.6
								 3.6 -180 1 0 24.51 224.75 ZM27.58 231.52 A3.6 3.6 -180 1 0 20.38 231.52 A3.6 3.6 -180 1 0 27.58
								 231.52 ZM34.35 234.59 A3.6 3.6 -180 1 0 27.15 234.59 A3.6 3.6 -180 1 0 34.35 234.59 ZM41.11 231.52
								 A3.6 3.6 -180 1 0 33.91 231.52 A3.6 3.6 -180 1 0 41.11 231.52 ZM44.19 224.75 A3.6 3.6 -180 1 0 36.99
								 224.75 A3.6 3.6 -180 1 0 44.19 224.75 ZM41.11 217.99 A3.6 3.6 -180 1 0 33.91 217.99 A3.6 3.6 -180
								 1 0 41.11 217.99 ZM34.35 214.91 A3.6 3.6 -180 1 0 27.15 214.91 A3.6 3.6 -180 1 0 34.35 214.91 ZM27.58
								 217.99 A3.6 3.6 -180 1 0 20.38 217.99 A3.6 3.6 -180 1 0 27.58 217.99 ZM24.51 224.75 A3.6 3.6 -180
								 1 0 17.31 224.75 A3.6 3.6 -180 1 0 24.51 224.75 ZM27.58 231.52 A3.6 3.6 -180 1 0 20.38 231.52 A3.6
								 3.6 -180 1 0 27.58 231.52 ZM34.35 234.59 A3.6 3.6 -180 1 0 27.15 234.59 A3.6 3.6 -180 1 0 34.35
								 234.59 ZM41.11 231.52 A3.6 3.6 -180 1 0 33.91 231.52 A3.6 3.6 -180 1 0 41.11 231.52 ZM44.19 224.75
								 A3.6 3.6 -180 1 0 36.99 224.75 A3.6 3.6 -180 1 0 44.19 224.75 ZM41.11 217.99 A3.6 3.6 -180 1 0 33.91
								 217.99 A3.6 3.6 -180 1 0 41.11 217.99 ZM34.35 214.91 A3.6 3.6 -180 1 0 27.15 214.91 A3.6 3.6 -180
								 1 0 34.35 214.91 ZM27.58 217.99 A3.6 3.6 -180 1 0 20.38 217.99 A3.6 3.6 -180 1 0 27.58 217.99 ZM24.51
								 224.75 A3.6 3.6 -180 1 0 17.31 224.75 A3.6 3.6 -180 1 0 24.51 224.75 ZM27.58 231.52 A3.6 3.6 -180
								 1 0 20.38 231.52 A3.6 3.6 -180 1 0 27.58 231.52 ZM34.35 234.59 A3.6 3.6 -180 1 0 27.15 234.59 A3.6
								 3.6 -180 1 0 34.35 234.59 ZM41.11 231.52 A3.6 3.6 -180 1 0 33.91 231.52 A3.6 3.6 -180 1 0 41.11
								 231.52 ZM44.19 224.75 A3.6 3.6 -180 1 0 36.99 224.75 A3.6 3.6 -180 1 0 44.19 224.75 ZM41.11 217.99
								 A3.6 3.6 -180 1 0 33.91 217.99 A3.6 3.6 -180 1 0 41.11 217.99 ZM34.35 214.91 A3.6 3.6 -180 1 0 27.15
								 214.91 A3.6 3.6 -180 1 0 34.35 214.91 ZM27.58 217.99 A3.6 3.6 -180 1 0 20.38 217.99 A3.6 3.6 -180
								 1 0 27.58 217.99 Z" class="st26"/>
				</g>
				<g id="shape76-325">
					<title>Sheet.76</title>
					<ellipse cx="30.75" cy="224.75" rx="15.375" ry="15.375" class="st6"/>
				</g>
				<g id="shape77-327" transform="translate(21.1406,-21.1406)">
					<title>Sheet.77</title>
					<ellipse cx="9.60937" cy="245.891" rx="9.60937" ry="9.60937" class="st18"/>
				</g>
			</g>
			<g id="shape220-329" transform="translate(42.6562,-24.4675)">
				<title>Sheet.220</title>
				<desc>Blue/Red Router</desc>
				<rect x="0" y="243.125" width="78.1875" height="12.375" class="st27"/>
				<text x="4" y="252.91" class="st14">Blue/<tspan class="st28">Red</tspan> Router</text>			</g>
		</g>
		<g id="group269-333" transform="translate(222.003,-31.5625)">
			<title>Sheet.269</title>
			<g id="group262-334" transform="translate(14.625,-10.4158)">
				<title>Sheet.262</title>
				<g id="shape247-335">
					<title>Circle.161</title>
					<path d="M0 240.18 A15.3234 15.3234 0 1 1 30.65 240.18 A15.3234 15.3234 0 0 1 0 240.18 Z" class="st29"/>
				</g>
				<g id="shape248-337" transform="translate(6.04211,-5.88267)">
					<title>Circle.248</title>
					<path d="M0 246.06 A9.28125 9.44069 0 0 1 18.56 246.06 A9.28125 9.44069 0 1 1 -0 246.06 Z" class="st30"/>
				</g>
			</g>
			<g id="shape266-339">
				<title>Sheet.266</title>
				<desc>Red Router</desc>
				<rect x="0" y="240.875" width="59.625" height="14.625" class="st31"/>
				<text x="6.97" y="251.79" class="st32">Red Router</text>			</g>
		</g>
	</g>
</svg>
